<?xml version="1.0" encoding="utf-8"?>
<!-- Generator: Adobe Illustrator 17.0.0, SVG Export Plug-In . SVG Version: 6.00 Build 0)  -->
<!DOCTYPE svg PUBLIC "-//W3C//DTD SVG 1.1//EN" "http://www.w3.org/Graphics/SVG/1.1/DTD/svg11.dtd">
<svg version="1.1" id="Capa_1" xmlns="http://www.w3.org/2000/svg" xmlns:xlink="http://www.w3.org/1999/xlink" x="0px" y="0px"
	 width="14px" height="14px" viewBox="318.5 315.833 14 14" enable-background="new 318.5 315.833 14 14" xml:space="preserve">
<path fill="#2F1E10" d="M287.053,246.291l0.317,0.2c0.25-0.395,0.373-0.63,0.378-0.638c0.094-0.178,0.031-0.398-0.142-0.499
	c-0.174-0.102-0.396-0.048-0.505,0.121c-0.003,0.006-0.147,0.23-0.374,0.631c-0.101,0.177-0.041,0.401,0.134,0.507
	c0.175,0.104,0.4,0.05,0.51-0.122L287.053,246.291l0.326,0.185c0.109-0.193,0.198-0.343,0.26-0.444
	c0.06-0.101,0.093-0.149,0.093-0.149l-0.315-0.203l-0.332-0.175c0,0-0.025,0.048-0.083,0.148c-0.058,0.101-0.147,0.25-0.266,0.438
	L287.053,246.291l0.326,0.185L287.053,246.291z"/>
<path fill="#8E2137" d="M287.053,246.291c0.244-0.387,0.363-0.612,0.363-0.612S287.275,245.897,287.053,246.291z"/>
<path fill="#2F1E10" d="M287.053,246.291l0.317,0.2c0.25-0.395,0.373-0.63,0.378-0.638c0.094-0.178,0.031-0.398-0.142-0.499
	c-0.174-0.102-0.396-0.048-0.505,0.121c-0.003,0.006-0.147,0.23-0.374,0.631c-0.101,0.177-0.041,0.401,0.134,0.507
	c0.175,0.104,0.4,0.05,0.51-0.122L287.053,246.291l0.326,0.185c0.109-0.193,0.198-0.343,0.26-0.444
	c0.06-0.101,0.093-0.149,0.093-0.149l-0.315-0.203l-0.332-0.175c0,0-0.025,0.048-0.083,0.148c-0.058,0.101-0.147,0.25-0.266,0.438
	L287.053,246.291l0.326,0.185L287.053,246.291z"/>
<radialGradient id="SVGID_1_" cx="-44.1144" cy="-168.2481" r="1" gradientTransform="matrix(13.7781 -4.3484 4.4123 20.1269 1621.8722 3418.4668)" gradientUnits="userSpaceOnUse">
	<stop  offset="0" style="stop-color:#F7F6F1"/>
	<stop  offset="0.4724" style="stop-color:#F7F6F1"/>
	<stop  offset="0.5997" style="stop-color:#F2F1E9"/>
	<stop  offset="0.8005" style="stop-color:#E6E2D2"/>
	<stop  offset="0.8528" style="stop-color:#E2DDCB"/>
	<stop  offset="1" style="stop-color:#E2DDCB"/>
</radialGradient>
<path fill="url(#SVGID_1_)" d="M272.568,236.852c-3.167,0-6.67-3.03-8.508-7.704c-2.234-5.689-1.162-11.658,2.402-13.338
	c0.635-0.299,1.306-0.441,1.992-0.441c3.168,0,6.668,3.031,8.508,7.706c2.236,5.689,1.158,11.659-2.402,13.335
	C273.926,236.71,273.255,236.852,272.568,236.852z M270.006,208.574c-0.809,0-1.615,0.131-2.404,0.403
	c-5.605,1.933-8.27,10.273-5.955,18.632c1.994,7.181,7.011,12.036,11.939,12.036c0.808,0,1.613-0.131,2.402-0.402
	c5.605-1.934,8.27-10.272,5.955-18.632C279.951,213.43,274.934,208.574,270.006,208.574z"/>
<path fill="#A99A8D" d="M283.518,220.109l-0.361,0.1c0.611,2.207,0.9,4.414,0.9,6.521c0,3.326-0.723,6.404-2.024,8.837
	c-1.304,2.436-3.175,4.219-5.484,5.016c-0.874,0.301-1.763,0.445-2.654,0.445c-2.661,0.001-5.375-1.288-7.704-3.578
	c-2.328-2.288-4.262-5.569-5.35-9.499c-0.611-2.206-0.9-4.414-0.9-6.521c0-3.327,0.722-6.404,2.024-8.838
	c1.304-2.435,3.175-4.219,5.484-5.016c0.873-0.301,1.761-0.445,2.653-0.445c2.66-0.001,5.375,1.288,7.704,3.578
	c2.329,2.288,4.262,5.57,5.351,9.5L283.518,220.109l0.361-0.1c-1.121-4.047-3.112-7.441-5.547-9.836
	c-2.434-2.392-5.322-3.792-8.23-3.793c-0.973,0-1.946,0.158-2.897,0.486c-2.523,0.87-4.532,2.809-5.901,5.371
	c-1.371,2.563-2.113,5.757-2.113,9.191c0,2.177,0.298,4.45,0.928,6.723c1.121,4.045,3.111,7.438,5.546,9.833
	c2.434,2.393,5.321,3.792,8.23,3.793c0.973,0,1.946-0.157,2.898-0.486c2.523-0.87,4.532-2.809,5.901-5.371
	c1.371-2.564,2.112-5.756,2.113-9.191c0-2.176-0.299-4.449-0.928-6.721L283.518,220.109z"/>
<radialGradient id="SVGID_2_" cx="-44.1144" cy="-168.2481" r="1" gradientTransform="matrix(13.7781 -4.3484 4.4123 20.1269 1621.8644 3418.499)" gradientUnits="userSpaceOnUse">
	<stop  offset="0" style="stop-color:#E1DDCB"/>
	<stop  offset="0.4724" style="stop-color:#E1DDCB"/>
	<stop  offset="0.5712" style="stop-color:#DBD6C1"/>
	<stop  offset="0.7373" style="stop-color:#CBC2A7"/>
	<stop  offset="0.8528" style="stop-color:#BDB291"/>
	<stop  offset="1" style="stop-color:#BDB291"/>
</radialGradient>
<path fill="url(#SVGID_2_)" d="M273.586,239.645c-4.929,0-9.945-4.855-11.939-12.036c-2.315-8.358,0.35-16.699,5.955-18.632
	c0.789-0.272,1.596-0.403,2.404-0.403c4.928,0,9.945,4.855,11.938,12.037c2.314,8.359-0.35,16.698-5.955,18.632
	C275.199,239.515,274.394,239.645,273.586,239.645z M270.104,207.131h-0.003c-0.893,0-1.78,0.145-2.653,0.445
	c-2.309,0.797-4.181,2.581-5.484,5.016c-1.303,2.434-2.025,5.511-2.024,8.838c0,2.107,0.289,4.315,0.9,6.521
	c1.088,3.93,3.022,7.211,5.35,9.499c2.328,2.289,5.04,3.578,7.7,3.578h0.004c0.892,0,1.78-0.145,2.654-0.445
	c2.31-0.797,4.181-2.58,5.484-5.016c1.302-2.433,2.024-5.511,2.024-8.837c0-2.107-0.289-4.314-0.9-6.521l0.361-0.1l-0.361,0.1
	c-1.089-3.93-3.021-7.212-5.351-9.5C275.477,208.42,272.765,207.131,270.104,207.131z"/>
<path fill="#695646" d="M270.102,206.756c-0.933,0-1.863,0.151-2.775,0.466c-6.363,2.195-9.426,11.52-6.848,20.83
	c2.21,7.975,7.846,13.352,13.415,13.352c0.933,0,1.863-0.151,2.776-0.466c6.363-2.194,9.426-11.519,6.848-20.828l-0.361,0.1
	c0.611,2.207,0.9,4.414,0.9,6.521c0,3.326-0.723,6.404-2.024,8.837c-1.304,2.436-3.175,4.219-5.484,5.016
	c-0.874,0.301-1.763,0.445-2.654,0.445h-0.004c-2.66,0-5.372-1.289-7.7-3.578c-2.328-2.288-4.262-5.569-5.35-9.499
	c-0.611-2.206-0.9-4.414-0.9-6.521c0-3.327,0.722-6.404,2.024-8.838c1.304-2.435,3.175-4.219,5.484-5.016
	c0.873-0.301,1.761-0.445,2.653-0.445h0.003c2.66,0,5.372,1.289,7.701,3.578c2.329,2.288,4.262,5.57,5.351,9.5l0.361-0.1
	C281.308,212.133,275.67,206.756,270.102,206.756z"/>
<path fill="#493B3D" d="M264.06,229.148c-2.234-5.689-1.162-11.658,2.402-13.338c3.564-1.678,8.262,1.577,10.5,7.265
	c2.236,5.689,1.158,11.659-2.402,13.335C271,238.09,266.297,234.836,264.06,229.148z"/>
<path fill="#110B0C" d="M268.727,219.318c-0.46,0-0.914,0.092-1.347,0.284c-2.447,1.088-3.305,4.982-1.922,8.7
	c1.14,3.058,3.444,5.043,5.588,5.043c0.461,0,0.915-0.092,1.348-0.284c2.443-1.088,3.305-4.982,1.922-8.699
	C273.174,221.303,270.87,219.318,268.727,219.318z"/>
<path fill="#FFFFFF" d="M270.428,221.552c-1.457-1.506-1.936-3.445-1.07-4.335c0.869-0.886,2.752-0.387,4.209,1.12
	c1.457,1.505,1.936,3.446,1.07,4.334C273.77,223.557,271.887,223.057,270.428,221.552z"/>
<path fill="#FFFFFF" d="M278.342,221.191c0,0-1.779-3.805-5.164-6.589c-3.381-2.787-0.273-3.803,2.846-0.833
	C280.188,217.733,280.02,223.391,278.342,221.191z"/>
<radialGradient id="SVGID_3_" cx="-43.241" cy="-169.4394" r="1" gradientTransform="matrix(14.2788 2.2019 -4.9554 19.9987 14.1385 3710.1567)" gradientUnits="userSpaceOnUse">
	<stop  offset="0" style="stop-color:#F7F6F1"/>
	<stop  offset="0.4724" style="stop-color:#F7F6F1"/>
	<stop  offset="0.5997" style="stop-color:#F2F1E9"/>
	<stop  offset="0.8005" style="stop-color:#E6E2D2"/>
	<stop  offset="0.8528" style="stop-color:#E2DDCB"/>
	<stop  offset="1" style="stop-color:#E2DDCB"/>
</radialGradient>
<path fill="url(#SVGID_3_)" d="M237.26,239.691l-0.087-0.001c-3.937-0.071-6.713-5.07-6.199-11.161
	c0.512-6.046,4.069-10.895,7.975-10.896l0.085,0.001c3.938,0.075,6.708,5.072,6.197,11.164
	C244.72,234.844,241.159,239.691,237.26,239.691z M239.123,210.784c-5.57,0.001-11.095,6.07-12.634,14.129
	c-1.619,8.52,1.828,16.033,7.709,16.781c0.319,0.041,0.637,0.061,0.956,0.061c5.57,0,11.094-6.071,12.632-14.128
	c1.623-8.521-1.827-16.034-7.708-16.782C239.76,210.805,239.442,210.784,239.123,210.784z"/>
<path fill="#A99A8D" d="M249.42,227.873l-0.368-0.07c-0.841,4.417-2.8,8.286-5.31,11.036c-2.511,2.752-5.558,4.374-8.576,4.372
	c-0.353,0-0.707-0.022-1.06-0.067c-2.665-0.34-4.877-1.928-6.45-4.373c-1.569-2.442-2.475-5.739-2.474-9.42
	c0-1.446,0.14-2.951,0.433-4.487c0.842-4.418,2.801-8.287,5.311-11.037c2.511-2.753,5.559-4.373,8.579-4.372
	c0.353,0,0.706,0.022,1.058,0.067c2.664,0.34,4.876,1.928,6.448,4.371c1.569,2.442,2.475,5.738,2.474,9.419
	c0,1.447-0.14,2.954-0.433,4.491L249.42,227.873l0.368,0.07c0.302-1.583,0.446-3.137,0.446-4.632
	c-0.001-3.803-0.931-7.233-2.593-9.824c-1.659-2.589-4.071-4.341-6.984-4.71c-0.384-0.049-0.769-0.073-1.153-0.073
	c-3.295,0.003-6.521,1.755-9.133,4.617c-2.613,2.864-4.625,6.852-5.494,11.401c-0.301,1.581-0.445,3.134-0.445,4.628
	c0.001,3.803,0.931,7.234,2.593,9.825c1.659,2.59,4.072,4.343,6.986,4.712c0.384,0.049,0.77,0.073,1.155,0.073
	c3.294-0.002,6.52-1.755,9.13-4.617c2.612-2.865,4.624-6.853,5.492-11.4L249.42,227.873z"/>
<radialGradient id="SVGID_4_" cx="-43.241" cy="-169.4394" r="1" gradientTransform="matrix(14.2788 2.2019 -4.9554 19.9987 14.1385 3710.1567)" gradientUnits="userSpaceOnUse">
	<stop  offset="0" style="stop-color:#E1DDCB"/>
	<stop  offset="0.4724" style="stop-color:#E1DDCB"/>
	<stop  offset="0.5712" style="stop-color:#DBD6C1"/>
	<stop  offset="0.7373" style="stop-color:#CBC2A7"/>
	<stop  offset="0.8528" style="stop-color:#BDB291"/>
	<stop  offset="1" style="stop-color:#BDB291"/>
</radialGradient>
<path fill="url(#SVGID_4_)" d="M235.154,241.755c-0.319,0-0.638-0.02-0.956-0.061c-5.881-0.748-9.328-8.261-7.709-16.781
	c1.539-8.059,7.064-14.128,12.634-14.129c0.319,0,0.637,0.021,0.956,0.061c5.881,0.748,9.331,8.261,7.708,16.782
	C246.248,235.684,240.725,241.755,235.154,241.755z M239.499,209.454c-3.018,0-6.064,1.621-8.573,4.372
	c-2.509,2.75-4.469,6.619-5.311,11.037c-0.293,1.536-0.433,3.041-0.433,4.487c0,3.681,0.905,6.978,2.474,9.42
	c1.572,2.445,3.785,4.033,6.45,4.373c0.353,0.045,0.707,0.067,1.06,0.067h0.005c3.017,0,6.062-1.621,8.571-4.372
	c2.509-2.75,4.468-6.619,5.31-11.036c0.293-1.537,0.433-3.044,0.433-4.491c0.001-3.681-0.905-6.977-2.474-9.419
	c-1.572-2.443-3.785-4.031-6.448-4.371c-0.352-0.045-0.705-0.067-1.058-0.067H239.499z"/>
<path fill="#695646" d="M235.172,243.211h-0.005c-0.353,0-0.707-0.022-1.06-0.067c-2.665-0.34-4.877-1.928-6.45-4.373
	c-1.569-2.442-2.475-5.739-2.474-9.42c0-1.446,0.14-2.951,0.433-4.487c0.842-4.418,2.801-8.287,5.311-11.037
	c2.51-2.751,5.556-4.372,8.573-4.372h0.005c0.353,0,0.706,0.022,1.058,0.067c2.664,0.34,4.876,1.928,6.448,4.371
	c1.569,2.442,2.475,5.738,2.474,9.419c0,1.447-0.14,2.954-0.433,4.491c-0.841,4.417-2.8,8.286-5.31,11.036
	C241.234,241.59,238.188,243.211,235.172,243.211z M239.504,209.08c-6.315,0-12.547,6.746-14.258,15.713
	c-1.809,9.491,2.138,17.874,8.813,18.723c0.368,0.047,0.738,0.07,1.107,0.07c6.313,0,12.545-6.747,14.254-15.713
	c1.811-9.493-2.137-17.875-8.811-18.724C240.242,209.102,239.873,209.08,239.504,209.08z"/>
<path fill="#493B3D" d="M230.973,228.529c0.516-6.09,4.121-10.967,8.061-10.895c3.938,0.075,6.708,5.072,6.197,11.164
	c-0.515,6.091-4.125,10.966-8.059,10.893C233.236,239.619,230.459,234.62,230.973,228.529z"/>
<path fill="#110B0C" d="M238.042,221.438c-2.625,0-5.041,3.072-5.441,6.952c-0.403,3.944,1.438,7.231,4.112,7.338l0.133,0.003
	c2.621,0,5.042-3.071,5.441-6.951c0.4-3.949-1.437-7.232-4.109-7.339L238.042,221.438z"/>
<path fill="#FFFFFF" d="M240.046,224.538c-0.64-1.995-0.21-3.946,0.96-4.36c1.172-0.41,2.639,0.872,3.277,2.867
	c0.641,1.995,0.209,3.947-0.96,4.359C242.154,227.815,240.688,226.533,240.046,224.538z"/>
<path fill="#FFFFFF" d="M231.209,221.4c0,0-1.613,3.879-1.395,8.255c0.217,4.376-2.627,2.763-2.531-1.544
	C227.411,222.364,231.707,218.68,231.209,221.4z"/>
<path fill="#2F1E10" d="M218.468,240.041l0.06-0.021c0.304-0.106,1.721-0.559,3.726-0.559c3.549,0.011,8.922,1.378,13.425,8.664
	c0.109,0.177,0.34,0.231,0.516,0.123c0.176-0.108,0.231-0.34,0.123-0.516c-4.61-7.498-10.319-9.032-14.064-9.021
	c-2.42,0.001-4.027,0.62-4.057,0.631c-0.193,0.074-0.289,0.292-0.214,0.484C218.058,240.02,218.274,240.116,218.468,240.041z"/>
<path fill="#2F1E10" d="M273.828,243.768l0.02-0.033c0.115-0.191,0.725-1.144,1.933-2.039c1.21-0.896,3.007-1.741,5.546-1.742
	c0.511,0,1.052,0.034,1.625,0.11c0.205,0.026,0.393-0.117,0.421-0.323c0.026-0.205-0.117-0.394-0.323-0.421
	c-0.604-0.08-1.178-0.116-1.723-0.116c-2.891-0.002-4.94,1.041-6.247,2.086c-1.31,1.045-1.891,2.086-1.907,2.115
	c-0.101,0.181-0.035,0.409,0.146,0.51C273.499,244.015,273.727,243.949,273.828,243.768z"/>
<path fill="#352620" d="M246.915,209.079c0,0-2.753-8.525-8.813-7.9c-6.062,0.625-7.569,6.5-7.191,7
	c0.379,0.5,2.468-4.699,7.975-4.25c0,0,3.842-0.25,6.967,5.438C245.853,209.366,246.79,210.479,246.915,209.079z"/>
<path fill="#352620" d="M259.564,206.757c0,0,3.483-8.766,10.323-9.703c6.842-0.938,9.342,6.438,8.842,7.25s-1.195-0.313-3.66-2
	c-2.465-1.688-8.152-4.47-14.152,4.453c0,0-1.391,1.734-1.352,0.234v-0.234H259.564z"/>
<path fill="#7B6B59" d="M276.416,201.145c0,0-4.418-7.967-12.611,0.283C263.805,201.429,270.109,195.616,276.416,201.145z"/>
<path fill="#7B6B59" d="M244.29,205.179c0,0-2.45-3.498-5.404-3.5c-2.954-0.002-5.346,2.313-5.346,2.313s2.313-1.625,5.375-1.125
	S244.29,205.179,244.29,205.179z"/>
<path fill="#8E2137" d="M214.532,249.179c0,0,7.634,13.5,36.134,13s36.75-16.5,36.75-16.5s-5.375,8.125-6.875,25.875
	s-11.25,31.375-28.875,30.5s-24.84-17.711-26.857-28.168C222.79,263.429,219.774,255.929,214.532,249.179z"/>
<path fill="#2F1E10" d="M214.532,249.179l-0.327,0.185c0.024,0.043,1.906,3.349,7.213,6.641c5.307,3.293,14.033,6.564,27.713,6.563
	c0.507,0,1.021-0.005,1.541-0.014c14.32-0.25,23.592-4.401,29.276-8.509c5.685-4.105,7.781-8.156,7.801-8.194
	c0.092-0.177,0.028-0.395-0.143-0.495c-0.172-0.1-0.393-0.05-0.502,0.116c-0.031,0.045-5.431,8.234-6.936,26.051
	c-0.722,8.547-3.37,16.108-7.869,21.515c-4.501,5.404-10.832,8.677-19.042,8.682c-0.517,0-1.04-0.014-1.572-0.04
	c-8.69-0.435-14.785-4.78-19.001-10.342c-4.211-5.561-6.508-12.337-7.507-17.522c-2.023-10.49-5.064-18.063-10.348-24.866
	c-0.121-0.155-0.34-0.19-0.504-0.082c-0.164,0.109-0.215,0.325-0.119,0.497L214.532,249.179l-0.296,0.23
	c5.2,6.697,8.192,14.124,10.204,24.548c1.019,5.271,3.338,12.141,7.645,17.832c4.302,5.689,10.627,10.199,19.562,10.64
	c0.543,0.026,1.08,0.04,1.609,0.04c8.413,0.004,14.997-3.389,19.619-8.952c4.625-5.561,7.307-13.271,8.04-21.932
	c0.747-8.842,2.458-15.278,3.979-19.498c0.761-2.11,1.473-3.666,1.993-4.691c0.261-0.513,0.473-0.894,0.619-1.144
	c0.073-0.126,0.13-0.219,0.168-0.279l0.055-0.087l-0.313-0.207l-0.333-0.172l-0.021,0.038c-0.235,0.432-2.478,4.375-8.086,8.27
	c-5.608,3.894-14.58,7.747-28.317,7.989c-0.516,0.009-1.025,0.014-1.528,0.014c-13.561-0.001-22.135-3.236-27.317-6.45
	c-2.591-1.608-4.336-3.212-5.43-4.408c-0.547-0.599-0.932-1.095-1.178-1.439c-0.123-0.172-0.212-0.306-0.269-0.396l-0.062-0.101
	l-0.017-0.029L214.532,249.179l-0.296,0.23L214.532,249.179z"/>
<path fill="#2F1E10" d="M206.233,249.195c0.033,0.026,1.675,1.684,4.23,1.692c2.214,0.005,4.998-1.295,7.77-5.761
	c0.109-0.176,0.056-0.407-0.12-0.517c-0.176-0.109-0.407-0.056-0.517,0.12c-2.712,4.34-5.234,5.402-7.134,5.407
	c-1.107,0-2.035-0.369-2.689-0.742c-0.327-0.186-0.583-0.373-0.757-0.512l-0.195-0.164l-0.047-0.044l-0.012-0.012
	c-0.146-0.146-0.384-0.146-0.53,0C206.087,248.811,206.087,249.049,206.233,249.195z"/>
<path fill="#70152B" d="M250.665,262.179c-22.497,0.394-31.986-7.93-34.987-11.456c4.541,6.358,7.265,13.495,9.13,23.163
	c2.018,10.457,9.232,27.293,26.857,28.168s27.375-12.75,28.875-30.5c1.268-15.006,5.293-23.108,6.512-25.263
	C285.205,249.214,275.834,261.737,250.665,262.179z M274.977,281.054c-0.686,5-5.045,13.922-10.178,10.586
	s-8.639-4.518-13.636-2.961c0,0-5.766-3.121-12.276-0.125c-6.511,2.996-9.736-7.68-6.729-11.277
	c3.008-3.598,11.628-2.342,19.634,4.652c2.355,2.058,6.265-4.609,13.007-6.43C271.541,273.679,275.662,276.054,274.977,281.054z"/>
<path fill="#2F1E10" d="M284.876,240.617c0.003,0.036,0.11,1.927,1.379,3.948c1.265,2.023,3.731,4.149,8.292,4.569
	c0.206,0.02,0.39-0.132,0.408-0.338c0.02-0.206-0.132-0.39-0.338-0.408c-4.355-0.414-6.555-2.371-7.728-4.223
	c-0.583-0.927-0.901-1.833-1.072-2.504c-0.085-0.336-0.134-0.612-0.161-0.803c-0.014-0.095-0.021-0.169-0.026-0.218l-0.006-0.067
	c-0.012-0.207-0.189-0.364-0.396-0.353C285.021,240.233,284.864,240.41,284.876,240.617z"/>
<path fill="#E2DDCB" d="M248.165,272.679c20.856,0.688,25.473-10.498,26.51-15.871c-5.615,2.854-13.41,5.186-24.01,5.371
	c-11.128,0.195-19.063-1.746-24.616-4.183C226.289,262.599,229.113,272.05,248.165,272.679z"/>
<path fill="#2F1E10" d="M248.165,272.679l-0.012,0.375c0.622,0.02,1.23,0.03,1.824,0.03c9.724,0.002,15.756-2.697,19.468-6.094
	c3.712-3.396,5.086-7.454,5.599-10.111c0.027-0.141-0.028-0.284-0.142-0.371c-0.114-0.086-0.268-0.1-0.396-0.034
	c-5.564,2.826-13.299,5.146-23.847,5.33c-0.516,0.009-1.025,0.014-1.526,0.014c-10.284,0-17.689-1.864-22.933-4.165
	c-0.12-0.052-0.257-0.039-0.364,0.035s-0.168,0.198-0.161,0.328c0.121,2.36,0.913,5.981,4.117,9.081
	c3.204,3.1,8.778,5.642,18.362,5.957L248.165,272.679l0.012-0.375c-9.469-0.314-14.833-2.813-17.865-5.746
	c-3.031-2.934-3.771-6.339-3.889-8.581l-0.375,0.02l-0.151,0.344c5.345,2.346,12.86,4.228,23.234,4.228
	c0.506,0,1.019-0.005,1.539-0.014c10.652-0.187,18.507-2.531,24.174-5.412l-0.17-0.334l-0.368-0.071
	c-0.494,2.557-1.811,6.448-5.368,9.7c-3.558,3.251-9.371,5.896-18.962,5.897c-0.585,0-1.185-0.01-1.8-0.03L248.165,272.679z"/>
<path fill="#2F1E10" d="M215.678,250.723l0.305-0.219c-0.373-0.52-0.755-1.04-1.156-1.556c-0.121-0.155-0.341-0.19-0.504-0.081
	c-0.163,0.109-0.215,0.326-0.117,0.497c0.01,0.019,0.368,0.642,1.187,1.602c0.13,0.153,0.357,0.177,0.516,0.052
	c0.159-0.124,0.191-0.35,0.074-0.514L215.678,250.723l0.285-0.243c-0.392-0.46-0.671-0.837-0.851-1.096
	c-0.09-0.129-0.155-0.229-0.197-0.296l-0.046-0.074l-0.012-0.02l-0.326,0.186l-0.296,0.23c0.392,0.504,0.768,1.016,1.137,1.531
	L215.678,250.723l0.285-0.243L215.678,250.723z"/>
<path fill="#C64664" d="M250.502,291.095c-6.586-4.197-12.087-0.392-15.518,3.482c4.074,4.129,9.518,7.121,16.681,7.477
	c6.209,0.309,11.436-1.189,15.674-4.026C260.34,285.704,250.502,291.095,250.502,291.095z"/>
<path fill="#2F1E10" d="M250.502,291.095l0.202-0.316c-2.091-1.334-4.104-1.892-5.981-1.892c-4.191,0.007-7.619,2.735-10.019,5.441
	c-0.13,0.147-0.124,0.372,0.014,0.513c4.125,4.184,9.669,7.229,16.929,7.588c0.542,0.026,1.078,0.04,1.605,0.04
	c5.584,0.001,10.362-1.495,14.296-4.13c0.163-0.109,0.214-0.325,0.117-0.497c-3.775-6.67-8.486-8.308-12.025-8.296
	c-3.095,0.002-5.286,1.204-5.318,1.22L250.502,291.095l0.202-0.316L250.502,291.095l0.18,0.329l0.085-0.044
	c0.418-0.21,2.338-1.085,4.873-1.084c3.31,0.012,7.682,1.441,11.373,7.917l0.326-0.186l-0.209-0.311
	c-3.811,2.55-8.427,4.002-13.878,4.003c-0.516,0-1.038-0.014-1.568-0.04c-7.066-0.353-12.409-3.291-16.432-7.365l-0.267,0.264
	l0.281,0.249c2.335-2.642,5.616-5.196,9.457-5.189c1.729,0.001,3.588,0.507,5.578,1.774c0.115,0.073,0.262,0.078,0.382,0.013
	L250.502,291.095z"/>
<path fill="#2F1E10" d="M238.864,301.733c0.033,0.021,5.979,4.279,14.252,4.284c3.533,0.001,7.49-0.783,11.563-3.01
	c0.182-0.1,0.249-0.327,0.149-0.509s-0.327-0.249-0.509-0.149c-3.959,2.163-7.78,2.917-11.204,2.918
	c-4.006,0-7.467-1.038-9.924-2.077c-1.229-0.52-2.206-1.039-2.874-1.428c-0.334-0.194-0.591-0.355-0.763-0.467l-0.194-0.13
	l-0.061-0.042c-0.169-0.121-0.403-0.082-0.523,0.087C238.657,301.379,238.696,301.613,238.864,301.733z"/>
<path fill="#2F1E10" d="M247.069,295.334l0.019-0.039c0.103-0.211,0.637-1.245,1.674-2.301c1.038-1.059,2.566-2.136,4.682-2.483
	c0.205-0.033,0.343-0.226,0.31-0.431c-0.034-0.204-0.227-0.343-0.431-0.31c-2.463,0.404-4.202,1.721-5.313,2.925
	c-1.113,1.206-1.612,2.305-1.624,2.328c-0.086,0.188-0.002,0.411,0.187,0.497C246.762,295.605,246.984,295.522,247.069,295.334z"/>
<path fill="#D66889" d="M239.082,292.054c-3.637,2.837-0.75,1.406,1.083,0.606c1.833-0.801,5.25-1.229,4.583,1.438
	c-0.666,2.666,0.5,4,3,3.75s6.167-4.638,11.417-3.277c5.25,1.36,3.832-0.973,0.75-2.473c-3.083-1.5-8.729-2.046-11.875,2.269
	c-2.188,3-2.479,0.396-1.313-0.938c1.167-1.333,1.604-2.719-0.563-3.192C243.998,289.763,241.165,290.429,239.082,292.054z"/>
<path fill="#E99AB7" d="M253.79,291.679c-2.765,0.233-4.23,2.563-3.428,2.938s4.053-2.25,7.428-1.469
	C261.166,293.929,258.366,291.292,253.79,291.679z"/>
<path fill="#F2F0E8" d="M233.748,262.574c2.492,0.404,16.501,3.361,32.252-0.976c0,0,3.689-1.677,2.928,1.16
	c-0.762,2.837-8.346,9.336-21.845,8.503c-13.5-0.833-14.5-5.09-14.834-6.503C231.915,263.346,232.515,262.374,233.748,262.574z"/>
<path fill="#FFFFFF" d="M237.004,264.168c1.923,0.277,12.733,2.313,24.888-0.672c0,0,2.848-1.154,2.26,0.799
	c-0.588,1.952-6.44,6.425-16.859,5.852c-10.418-0.573-11.189-3.503-11.447-4.476C235.588,264.698,236.051,264.029,237.004,264.168z"
	/>
<path fill="#8E2137" d="M215.678,250.723c-0.371-0.518-0.75-1.034-1.146-1.544C214.532,249.179,214.876,249.782,215.678,250.723z"/>
<path fill="#2F1E10" d="M215.678,250.723l0.305-0.219c-0.373-0.52-0.755-1.04-1.156-1.556c-0.121-0.155-0.341-0.19-0.504-0.081
	c-0.163,0.109-0.215,0.326-0.117,0.497c0.01,0.019,0.368,0.642,1.187,1.602c0.13,0.153,0.357,0.177,0.516,0.052
	c0.159-0.124,0.191-0.35,0.074-0.514L215.678,250.723l0.285-0.243c-0.392-0.46-0.671-0.837-0.851-1.096
	c-0.09-0.129-0.155-0.229-0.197-0.296l-0.046-0.074l-0.012-0.02l-0.326,0.186l-0.296,0.23c0.392,0.504,0.768,1.016,1.137,1.531
	L215.678,250.723l0.285-0.243L215.678,250.723z"/>
<path fill="#2F1E10" d="M214.532,249.179l-0.327,0.185c0.024,0.043,1.906,3.349,7.213,6.641c5.307,3.293,14.033,6.564,27.713,6.563
	c0.507,0,1.021-0.005,1.541-0.014c14.32-0.25,23.592-4.401,29.276-8.509c5.685-4.105,7.781-8.156,7.801-8.194
	c0.092-0.177,0.028-0.395-0.143-0.495c-0.172-0.1-0.393-0.05-0.502,0.116c-0.031,0.045-5.431,8.234-6.936,26.051
	c-0.722,8.547-3.37,16.108-7.869,21.515c-4.501,5.404-10.832,8.677-19.042,8.682c-0.517,0-1.04-0.014-1.572-0.04
	c-8.69-0.435-14.785-4.78-19.001-10.342c-4.211-5.561-6.508-12.337-7.507-17.522c-2.023-10.49-5.064-18.063-10.348-24.866
	c-0.121-0.155-0.34-0.19-0.504-0.082c-0.164,0.109-0.215,0.325-0.119,0.497L214.532,249.179l-0.296,0.23
	c5.2,6.697,8.192,14.124,10.204,24.548c1.019,5.271,3.338,12.141,7.645,17.832c4.302,5.689,10.627,10.199,19.562,10.64
	c0.543,0.026,1.08,0.04,1.609,0.04c8.413,0.004,14.997-3.389,19.619-8.952c4.625-5.561,7.307-13.271,8.04-21.932
	c0.747-8.842,2.458-15.278,3.979-19.498c0.761-2.11,1.473-3.666,1.993-4.691c0.261-0.513,0.473-0.894,0.619-1.144
	c0.073-0.126,0.13-0.219,0.168-0.279l0.055-0.087l-0.313-0.207l-0.333-0.172l-0.021,0.038c-0.235,0.432-2.478,4.375-8.086,8.27
	c-5.608,3.894-14.58,7.747-28.317,7.989c-0.516,0.009-1.025,0.014-1.528,0.014c-13.561-0.001-22.135-3.236-27.317-6.45
	c-2.591-1.608-4.336-3.212-5.43-4.408c-0.547-0.599-0.932-1.095-1.178-1.439c-0.123-0.172-0.212-0.306-0.269-0.396l-0.062-0.101
	l-0.017-0.029L214.532,249.179l-0.296,0.23L214.532,249.179z"/>
<path fill="#8E2137" d="M215.678,250.723c-0.371-0.518-0.75-1.034-1.146-1.544C214.532,249.179,214.876,249.782,215.678,250.723z"/>
<path fill="#2F1E10" d="M215.678,250.723l0.305-0.219c-0.373-0.52-0.755-1.04-1.156-1.556c-0.121-0.155-0.341-0.19-0.504-0.081
	c-0.163,0.109-0.215,0.326-0.117,0.497c0.01,0.019,0.368,0.642,1.187,1.602c0.13,0.153,0.357,0.177,0.516,0.052
	c0.159-0.124,0.191-0.35,0.074-0.514L215.678,250.723l0.285-0.243c-0.392-0.46-0.671-0.837-0.851-1.096
	c-0.09-0.129-0.155-0.229-0.197-0.296l-0.046-0.074l-0.012-0.02l-0.326,0.186l-0.296,0.23c0.392,0.504,0.768,1.016,1.137,1.531
	L215.678,250.723l0.285-0.243L215.678,250.723z"/>
<path fill="#8E2137" d="M287.053,246.291c0.244-0.387,0.363-0.612,0.363-0.612S287.275,245.897,287.053,246.291z"/>
<path fill="#2F1E10" d="M287.053,246.291l0.317,0.2c0.25-0.395,0.373-0.63,0.378-0.638c0.094-0.178,0.031-0.398-0.142-0.499
	c-0.174-0.102-0.396-0.048-0.505,0.121c-0.003,0.006-0.147,0.23-0.374,0.631c-0.101,0.177-0.041,0.401,0.134,0.507
	c0.175,0.104,0.4,0.05,0.51-0.122L287.053,246.291l0.326,0.185c0.109-0.193,0.198-0.343,0.26-0.444
	c0.06-0.101,0.093-0.149,0.093-0.149l-0.315-0.203l-0.332-0.175c0,0-0.025,0.048-0.083,0.148c-0.058,0.101-0.147,0.25-0.266,0.438
	L287.053,246.291l0.326,0.185L287.053,246.291z"/>
</svg>
