<?xml version="1.0" encoding="utf-8"?>
<!-- Generator: Adobe Illustrator 17.0.0, SVG Export Plug-In . SVG Version: 6.00 Build 0)  -->
<!DOCTYPE svg PUBLIC "-//W3C//DTD SVG 1.1//EN" "http://www.w3.org/Graphics/SVG/1.1/DTD/svg11.dtd">
<svg version="1.1" id="Capa_1" xmlns="http://www.w3.org/2000/svg" xmlns:xlink="http://www.w3.org/1999/xlink" x="0px" y="0px"
	 width="500px" height="500px" viewBox="0 0 500 500" enable-background="new 0 0 500 500" xml:space="preserve">
<g>
	<radialGradient id="SVGID_1_" cx="242.4065" cy="170.6727" r="98.6606" gradientUnits="userSpaceOnUse">
		<stop  offset="0" style="stop-color:#FFFFFF"/>
		<stop  offset="1" style="stop-color:#030500"/>
	</radialGradient>
	<path display="none" opacity="0.2" fill="url(#SVGID_1_)" d="M276.183,265.169c0.491-1.22,2.831,2.049,3.221,0.877
		c0.391-1.17-3.709-4.099-1.659-5.466c3.124-2.342,11.325,2.051,21.573,6.442c10.251,4.392,11.422-0.78,11.299-3.879
		c-0.162-4.107-7.247-4.539-12.373-4.539c-5.125,0-7.248-0.879-4.539-2.344c2.708-1.464,0.512-2.635-2.563-2.416
		c-3.076,0.219-11.642,0.512-11.715-1.758c-0.073-2.27,5.638-1.83,4.979-3.587c-0.659-1.758-5.638-0.22-5.857-1.758
		c-0.22-1.538,1.39-3.587,8.273-3.368c6.882,0.22,8.639-3.002,6.37-4.686c-2.27-1.684-6.736,0.073-10.616,2.124
		c-3.881,2.049-7.103,1.684-6.296-1.538c1.538-5.125,6.516-3.734,15.96-2.708c9.444,1.023,14.717-5.785,9.738-8.421
		c-4.979-2.636-11.056,0.074-17.133,2.124c-6.077,2.05-4.027-0.585-4.685-0.585c-0.659,0-2.563,0.365-1.904-1.099
		c0.659-1.464,5.491-2.708,9.664-6.588c4.173-3.88,6.443-13.252,1.171-13.691c-5.271-0.44-7.468,4.246-9.664,8.858
		c-2.196,4.613-2.782,6.663-4.465,8.127c-1.684,1.464-3.002,0-1.904-1.245c1.098-1.245,1.977-3.075,0.952-3.587
		s-3.733,3.222-6.003,3.295c-2.269,0.072-1.098-4.027,1.098-7.175c2.197-3.149,8.42-6.736,7.614-8.273
		c-1.245-2.343-4.026-0.293-6.442,3.807c-1.961,3.329-4.173,4.538-5.125,3.367c-1.098-2.635,1.903-5.71,6.955-11.714
		c8.346-11.714,0.952-17.278-5.271-12.959c-6.224,4.32-6.077,13.106-5.638,20.427c0.439,7.321-0.878,10.835-2.781,11.788
		c-1.904,0.951-2.856-1.025-2.343-4.758c0.512-3.734-1.318-3.296-1.612-1.026c-0.292,2.27-0.805,6.443-2.928,4.393
		c-2.123-2.05-3.076-3.735,0.366-13.471c3.367-9.372,1.024-15.376-2.197-14.351c-5.271,2.05-5.71,10.47-4.246,16.253
		c1.465,5.785-0.292,7.395-1.61,7.322c-1.318-0.074-1.611-3.588-2.928-3.441c-1.319,0.146-0.514,1.683,1.317,4.905
		c2.782,6.809-2.415,8.273-4.905,7.541c-4.362-1.283-3.222-8.346-4.833-18.083c-1.611-9.737-11.934-11.788-17.278-5.639
		c-6.004,9.372,2.105,17.02,5.645,19.535c3.538,2.512,5.898,4.77,5.745,6c-0.155,1.231-1.745,1.128-3.18-0.871
		c-1.436-2.001-2.923-0.924-1.847,0.41c1.078,1.333,2.154,1.179,2.001,3.231c-0.162,2.153-3.385,1.847-6.053-0.873
		c-2.667-2.717-3.539-6.411-8.001-8.872c-4.462-2.462-7.539,0.41-6.872,3.897c1.342,7.016,12.668,9.283,12.668,9.283
		c2.191,0.652,4.692,1.645,4.765,2.749c0.074,1.103-1.471,0.809-1.471,1.361c0,0.551,1.325,0.514,1.213,1.25
		c-0.11,0.736-2.562,0.266-7.443-0.76c-4.881-1.024-13.91-3.954-15.424-0.342c-0.781,2.099,2.148,2.343,6.59,2.05
		c4.442-0.293,6.882,0.245,6.784,1.075c-0.097,0.829-4.978,0.146-4.832,2.879c0.147,2.733,6.492,0.488,9.616-0.536
		c3.124-1.026,9.224-1.27,11.47,1.659c1.415,2.001-0.049,3.172-1.903,3.415c-1.855,0.245-1.855,1.49,0.121,1.49
		c1.977,0,4.393,2.416-0.878,4.1c-5.272,1.685-18.157-1.245-21.745,5.711c-1.098,2.855,1.804,3.972,6.809,1.612
		c7.76-3.662,11.934-5.053,13.324-3.955c1.392,1.098-9.005,2.269-15.521,7.615c-6.516,5.343-4.832,11.054-2.123,12.371
		c2.708,1.319,8.493-2.196,13.398-7.467c4.906-5.272,7.541-5.858,5.784-3.076c-1.757,2.783-1.392,5.784,1.317,2.929
		c2.71-2.856,6.443-4.685,6.663-2.123c0.219,2.563-3.347,7.574-9.299,13.179c-6.296,5.93-7.76,8.932-6.442,10.177
		c1.317,1.244,5.271-5.711,6.735-5.491c1.464,0.22-0.585,3.295-7.248,10.396c-6.662,7.104-6.955,14.792-1.83,17.429
		c5.125,2.635,11.274-0.369,12.153-11.716c0.879-11.349,1.831-10.545,1.978-8.421c0.146,2.124,0.585,3.075,1.611,2.708
		c1.024-0.364,1.684-4.172,2.195-10.688c0.513-6.516,2.343-9.885,3.881-11.055c1.537-1.172,0,4.244,1.83,3.512
		c1.83-0.731,3.295-5.782,5.272-6.003c1.977-0.221,3.147,2.857-0.22,6.15c-3.368,3.295-6.297,12.373,0.878,15.229
		c7.175,2.854,10.03-4.832,8.64-10.396c-1.392-5.564-0.439-6.296,0-4.466c0.439,1.83,0.585,1.246,0.731-0.731
		c0.146-1.977,1.684-3.223,1.684-1.246c0,1.978-1.171,9.446,2.344,9.592c3.514,0.145,1.171-6.368,0.439-10.25
		c-0.733-3.881,1.171-7.835,3.88-7.979c2.708-0.146,6.535,3.421,7.908,11.274c1.318,7.541,2.855,14.568,9.225,14.13
		c6.369-0.439,6.736-10.031,0.22-15.082c-6.517-5.052-9.591-7.541-9.152-10.03c0.219-0.879,1.098,0.439,1.831,1.464
		c0.732,1.025,3.221,2.051,0.952-1.538c-2.27-3.586,0.293-7.319,2.489-3.294c2.196,4.026,4.101,10.031,6.15,8.86
		C282.723,272.954,275.573,266.682,276.183,265.169z"/>
	<radialGradient id="SVGID_2_" cx="229.2282" cy="216.9448" r="96.5903" gradientUnits="userSpaceOnUse">
		<stop  offset="0" style="stop-color:#C5F588"/>
		<stop  offset="0.5196" style="stop-color:#95EC23"/>
		<stop  offset="1" style="stop-color:#A4EF42"/>
	</radialGradient>
	<path fill="url(#SVGID_2_)" d="M275.402,262.827c0.491-1.219,2.831,2.049,3.221,0.878c0.392-1.173-3.71-4.1-1.66-5.467
		c3.125-2.342,11.325,2.049,21.574,6.442c10.25,4.392,11.422-0.782,11.299-3.88c-0.162-4.107-7.249-4.54-12.373-4.54
		c-5.125,0-7.248-0.879-4.539-2.343c2.709-1.464,0.512-2.635-2.563-2.415c-3.075,0.22-11.642,0.513-11.715-1.758
		c-0.074-2.27,5.638-1.829,4.978-3.587c-0.659-1.757-5.638-0.22-5.857-1.757c-0.22-1.538,1.39-3.587,8.273-3.368
		c6.882,0.22,8.639-3.002,6.369-4.686c-2.27-1.684-6.736,0.074-10.616,2.123c-3.88,2.051-7.102,1.685-6.296-1.537
		c1.538-5.125,6.517-3.734,15.961-2.708c9.444,1.023,14.717-5.785,9.738-8.421c-4.979-2.636-11.056,0.074-17.133,2.123
		c-6.077,2.05-4.026-0.585-4.685-0.585c-0.66,0-2.563,0.366-1.904-1.1c0.659-1.463,5.491-2.708,9.664-6.589
		c4.173-3.88,6.443-13.252,1.171-13.69c-5.271-0.439-7.468,4.246-9.664,8.858c-2.197,4.613-2.782,6.664-4.466,8.127
		c-1.684,1.464-3.003,0-1.904-1.245c1.098-1.244,1.978-3.075,0.953-3.587c-1.026-0.513-3.734,3.221-6.004,3.294
		c-2.269,0.074-1.098-4.026,1.099-7.175c2.196-3.149,8.419-6.736,7.614-8.273c-1.245-2.343-4.027-0.292-6.443,3.808
		c-1.961,3.328-4.173,4.538-5.125,3.367c-1.098-2.635,1.903-5.711,6.955-11.714c8.346-11.714,0.952-17.278-5.271-12.958
		c-6.224,4.319-6.077,13.105-5.638,20.426c0.439,7.322-0.878,10.836-2.782,11.788c-1.904,0.952-2.856-1.026-2.342-4.76
		c0.512-3.734-1.318-3.294-1.612-1.025c-0.292,2.269-0.804,6.443-2.928,4.393c-2.123-2.05-3.076-3.734,0.366-13.472
		c3.367-9.371,1.024-15.374-2.197-14.349c-5.271,2.049-5.71,10.47-4.247,16.253c1.464,5.784-0.292,7.395-1.61,7.322
		c-1.318-0.074-1.611-3.588-2.928-3.441c-1.319,0.146-0.513,1.683,1.317,4.905c2.782,6.809-2.415,8.273-4.905,7.54
		c-4.362-1.282-3.222-8.346-4.833-18.083c-1.611-9.738-11.934-11.788-17.278-5.638c-6.004,9.372,2.105,17.02,5.645,19.535
		c3.539,2.513,5.897,4.769,5.744,6c-0.154,1.231-1.744,1.128-3.18-0.873c-1.437-1.999-2.923-0.922-1.847,0.411
		c1.078,1.333,2.154,1.179,2,3.231c-0.161,2.153-3.384,1.847-6.052-0.872c-2.666-2.718-3.538-6.411-8.001-8.874
		c-4.462-2.461-7.539,0.411-6.872,3.899c1.341,7.016,12.668,9.283,12.668,9.283c2.19,0.651,4.691,1.645,4.766,2.749
		c0.073,1.103-1.472,0.808-1.472,1.359c0,0.553,1.324,0.516,1.213,1.251c-0.11,0.736-2.562,0.265-7.443-0.759
		c-4.881-1.025-13.91-3.954-15.424-0.342c-0.781,2.099,2.147,2.343,6.589,2.049c4.442-0.291,6.882,0.245,6.785,1.074
		c-0.097,0.83-4.979,0.147-4.832,2.879c0.147,2.734,6.492,0.489,9.616-0.535c3.124-1.026,9.225-1.27,11.47,1.659
		c1.416,2.001-0.049,3.172-1.903,3.416c-1.855,0.244-1.855,1.489,0.122,1.489c1.977,0,4.394,2.417-0.878,4.1
		c-5.271,1.685-18.158-1.245-21.745,5.711c-1.099,2.854,1.804,3.971,6.81,1.611c7.76-3.662,11.934-5.053,13.324-3.954
		c1.391,1.098-9.005,2.271-15.521,7.614c-6.516,5.345-4.833,11.056-2.123,12.372c2.708,1.318,8.492-2.196,13.398-7.467
		c4.905-5.271,7.541-5.858,5.784-3.076c-1.757,2.784-1.392,5.783,1.317,2.93c2.709-2.856,6.443-4.686,6.663-2.125
		c0.219,2.563-3.348,7.575-9.299,13.179c-6.296,5.93-7.76,8.934-6.442,10.179c1.317,1.244,5.271-5.713,6.735-5.491
		c1.464,0.218-0.586,3.294-7.248,10.396c-6.662,7.102-6.955,14.789-1.83,17.427c5.125,2.635,11.274-0.367,12.153-11.715
		c0.878-11.348,1.831-10.544,1.977-8.42c0.146,2.122,0.586,3.074,1.611,2.708c1.024-0.366,1.684-4.175,2.196-10.688
		c0.513-6.517,2.343-9.884,3.881-11.057c1.537-1.173,0,4.247,1.83,3.515c1.83-0.732,3.295-5.784,5.271-6.004
		c1.977-0.22,3.148,2.856-0.219,6.15c-3.369,3.295-6.297,12.375,0.878,15.228c7.176,2.855,10.031-4.831,8.64-10.396
		c-1.391-5.564-0.439-6.296,0-4.465c0.44,1.828,0.586,1.244,0.732-0.733c0.147-1.977,1.683-3.221,1.683-1.244
		c0,1.978-1.17,9.444,2.344,9.591c3.514,0.145,1.171-6.369,0.439-10.25c-0.733-3.881,1.172-7.834,3.881-7.98
		c2.708-0.146,6.535,3.421,7.907,11.276c1.317,7.54,2.855,14.567,9.225,14.13c6.369-0.44,6.735-10.031,0.22-15.083
		c-6.517-5.053-9.591-7.54-9.152-10.031c0.219-0.877,1.098,0.44,1.831,1.465c0.732,1.026,3.221,2.05,0.951-1.538
		c-2.27-3.586,0.293-7.319,2.489-3.293c2.197,4.025,4.101,10.03,6.15,8.859C281.943,270.609,274.792,264.338,275.402,262.827z"/>
	<g>
		
			<radialGradient id="SVGID_3_" cx="203.8737" cy="154.3532" r="12.0441" gradientTransform="matrix(0.8303 0.5574 -0.5574 0.8303 106.5764 -4.0599)" gradientUnits="userSpaceOnUse">
			<stop  offset="0" style="stop-color:#FFFFFF"/>
			<stop  offset="1" style="stop-color:#030500"/>
		</radialGradient>
		<path opacity="0.2" fill="url(#SVGID_3_)" d="M196.513,229.279c-0.726-0.616-1.721-0.969-2.65-1.135
			c-1.042-0.187-2.719-0.42-3.291,0.756c-0.498,1.021,0.423,2.209,1.177,2.827c1.267,1.041,3.089,1.784,4.678,1.026
			C197.937,232.035,197.69,230.276,196.513,229.279z"/>
		<g>
			
				<radialGradient id="SVGID_4_" cx="198.3864" cy="140.5527" r="9.7983" gradientTransform="matrix(0.8303 0.5574 -0.5574 0.8303 106.5764 -4.0599)" gradientUnits="userSpaceOnUse">
				<stop  offset="0" style="stop-color:#C5F588"/>
				<stop  offset="0.5196" style="stop-color:#95EC23"/>
				<stop  offset="1" style="stop-color:#A4EF42"/>
			</radialGradient>
			<path fill="url(#SVGID_4_)" d="M193.757,227.506c-0.97-0.173-2.53-0.389-3.063,0.707c-0.463,0.951,0.393,2.056,1.093,2.632
				c1.177,0.968,2.873,1.658,4.352,0.952c1.404-0.671,1.177-2.308,0.083-3.236C195.546,227.988,194.62,227.659,193.757,227.506z"/>
			<defs>
				<filter id="Adobe_OpacityMaskFilter" filterUnits="userSpaceOnUse" x="190.562" y="227.364" width="6.555" height="4.722">
					<feFlood  style="flood-color:white;flood-opacity:1" result="back"/>
					<feBlend  in="SourceGraphic" in2="back" mode="normal"/>
				</filter>
			</defs>
			<mask maskUnits="userSpaceOnUse" x="190.562" y="227.364" width="6.555" height="4.722" id="SVGID_5_">
				<g filter="url(#Adobe_OpacityMaskFilter)">
					<defs>
						<filter id="Adobe_OpacityMaskFilter_1_" filterUnits="userSpaceOnUse" x="190.562" y="227.364" width="6.555" height="4.722">
							<feFlood  style="flood-color:white;flood-opacity:1" result="back"/>
							<feBlend  in="SourceGraphic" in2="back" mode="normal"/>
						</filter>
					</defs>
					<mask maskUnits="userSpaceOnUse" x="190.562" y="227.364" width="6.555" height="4.722" id="SVGID_5_">
						<g filter="url(#Adobe_OpacityMaskFilter_1_)">
						</g>
					</mask>
					
						<linearGradient id="SVGID_6_" gradientUnits="userSpaceOnUse" x1="201.0939" y1="143.6569" x2="204.6086" y2="147.3913" gradientTransform="matrix(0.8303 0.5574 -0.5574 0.8303 106.5764 -4.0599)">
						<stop  offset="0" style="stop-color:#000000"/>
						<stop  offset="0.5196" style="stop-color:#FFFFFF"/>
						<stop  offset="1" style="stop-color:#FFFFFF"/>
					</linearGradient>
					<path mask="url(#SVGID_5_)" fill="url(#SVGID_6_)" d="M196.222,228.56c-0.676-0.572-1.602-0.901-2.465-1.054
						c-0.97-0.173-2.53-0.389-3.063,0.707c-0.463,0.951,0.393,2.056,1.093,2.632c1.177,0.968,2.873,1.658,4.352,0.952
						C197.543,231.125,197.315,229.488,196.222,228.56z M195.069,230.624c-1.028,0.492-2.207,0.013-3.026-0.661
						c-0.487-0.401-1.082-1.168-0.76-1.83c0.371-0.762,1.456-0.612,2.129-0.493c0.602,0.108,1.245,0.336,1.714,0.734
						C195.889,229.02,196.048,230.159,195.069,230.624z"/>
				</g>
			</mask>
			
				<linearGradient id="SVGID_7_" gradientUnits="userSpaceOnUse" x1="201.0939" y1="143.6569" x2="204.6086" y2="147.3913" gradientTransform="matrix(0.8303 0.5574 -0.5574 0.8303 106.5764 -4.0599)">
				<stop  offset="0" style="stop-color:#C5F588"/>
				<stop  offset="0.5196" style="stop-color:#95EC23"/>
				<stop  offset="1" style="stop-color:#A4EF42"/>
			</linearGradient>
			<path opacity="0.7" fill="url(#SVGID_7_)" d="M196.222,228.56c-0.676-0.572-1.602-0.901-2.465-1.054
				c-0.97-0.173-2.53-0.389-3.063,0.707c-0.463,0.951,0.393,2.056,1.093,2.632c1.177,0.968,2.873,1.658,4.352,0.952
				C197.543,231.125,197.315,229.488,196.222,228.56z M195.069,230.624c-1.028,0.492-2.207,0.013-3.026-0.661
				c-0.487-0.401-1.082-1.168-0.76-1.83c0.371-0.762,1.456-0.612,2.129-0.493c0.602,0.108,1.245,0.336,1.714,0.734
				C195.889,229.02,196.048,230.159,195.069,230.624z"/>
			
				<radialGradient id="SVGID_8_" cx="202.2856" cy="145.3036" r="5.3656" gradientTransform="matrix(0.8303 0.5574 -0.5574 0.8303 106.5764 -4.0599)" gradientUnits="userSpaceOnUse">
				<stop  offset="0" style="stop-color:#C5F588"/>
				<stop  offset="1" style="stop-color:#AAF04F"/>
			</radialGradient>
			<path opacity="0.7" fill="url(#SVGID_8_)" d="M195.257,229.982c-0.02-0.018-0.031-0.036-0.038-0.054
				c-0.034-0.023-0.067-0.048-0.102-0.068c-0.475-0.295-0.993-0.539-1.528-0.708c-0.576-0.181-1.445-0.428-2.013-0.085
				c-0.351,0.211-0.479,0.541-0.366,0.863c0.218,0.321,0.493,0.606,0.747,0.814c0.007,0.007,0.017,0.013,0.024,0.02
				c0.607,0.445,1.353,0.76,2.03,0.974c0.207,0.065,0.486,0.134,0.771,0.163c0.319,0.002,0.637-0.043,0.949-0.15
				c0.047-0.032,0.092-0.066,0.131-0.106C196.38,231.095,195.668,230.362,195.257,229.982z"/>
			
				<radialGradient id="SVGID_9_" cx="200.4607" cy="142.3955" r="4.5488" gradientTransform="matrix(0.8303 0.5574 -0.5574 0.8303 106.5764 -4.0599)" gradientUnits="userSpaceOnUse">
				<stop  offset="0" style="stop-color:#FFFFFF"/>
				<stop  offset="1" style="stop-color:#030500"/>
			</radialGradient>
			<path fill="url(#SVGID_9_)" d="M195.391,228.765c-0.029-0.069-0.075-0.145-0.142-0.226c-0.348-0.419-1.041-0.642-1.547-0.778
				c-0.587-0.159-2.097-0.235-2.344,0.523c-0.266,0.816,0.926,1.096,1.458,1.208C193.314,229.597,195.741,229.621,195.391,228.765z"
				/>
			
				<radialGradient id="SVGID_10_" cx="201.071" cy="144.8658" r="0.8932" gradientTransform="matrix(0.8303 0.5574 -0.5574 0.8303 106.5764 -4.0599)" gradientUnits="userSpaceOnUse">
				<stop  offset="0" style="stop-color:#FFFFFF"/>
				<stop  offset="1" style="stop-color:#030500"/>
			</radialGradient>
			<path fill="url(#SVGID_10_)" d="M193.975,228.171c-0.384-0.361-0.886-0.418-1.393-0.361c-0.347,0.04-1.035,0.15-0.955,0.638
				c0.009,0.056,0.072,0.083,0.119,0.094c0.285,0.07,0.654-0.122,0.942-0.15c0.403-0.038,0.817-0.057,1.221-0.084
				C193.979,228.303,194.034,228.225,193.975,228.171z"/>
		</g>
	</g>
	<g>
		
			<radialGradient id="SVGID_11_" cx="194.3767" cy="2.0225" r="19.4643" gradientTransform="matrix(0.9781 -0.208 0.208 0.9781 115.0216 260.6029)" gradientUnits="userSpaceOnUse">
			<stop  offset="0" style="stop-color:#FFFFFF"/>
			<stop  offset="1" style="stop-color:#030500"/>
		</radialGradient>
		<path opacity="0.2" fill="url(#SVGID_11_)" d="M303.281,204.865c-1.531,0.15-3.059,0.908-4.296,1.798
			c-1.388,0.999-3.544,2.681-2.824,4.669c0.626,1.724,3.037,1.991,4.604,1.814c2.632-0.297,5.543-1.577,6.452-4.272
			C308.079,206.314,305.763,204.623,303.281,204.865z"/>
		<g>
			
				<radialGradient id="SVGID_12_" cx="185.5107" cy="-20.2784" r="15.8315" gradientTransform="matrix(0.9781 -0.208 0.208 0.9781 115.0216 260.6029)" gradientUnits="userSpaceOnUse">
				<stop  offset="0" style="stop-color:#C5F588"/>
				<stop  offset="0.5196" style="stop-color:#95EC23"/>
				<stop  offset="1" style="stop-color:#A4EF42"/>
			</radialGradient>
			<path fill="url(#SVGID_12_)" d="M298.125,206.067c-1.292,0.931-3.296,2.499-2.625,4.349c0.582,1.607,2.824,1.857,4.282,1.691
				c2.447-0.276,5.153-1.466,5.998-3.977c0.801-2.384-1.354-3.961-3.661-3.735C300.696,204.534,299.275,205.239,298.125,206.067z"/>
			<defs>
				<filter id="Adobe_OpacityMaskFilter_2_" filterUnits="userSpaceOnUse" x="295.367" y="204.374" width="10.585" height="7.777">
					<feFlood  style="flood-color:white;flood-opacity:1" result="back"/>
					<feBlend  in="SourceGraphic" in2="back" mode="normal"/>
				</filter>
			</defs>
			<mask maskUnits="userSpaceOnUse" x="295.367" y="204.374" width="10.585" height="7.777" id="SVGID_13_">
				<g filter="url(#Adobe_OpacityMaskFilter_2_)">
					<defs>
						
							<filter id="Adobe_OpacityMaskFilter_3_" filterUnits="userSpaceOnUse" x="295.367" y="204.374" width="10.585" height="7.777">
							<feFlood  style="flood-color:white;flood-opacity:1" result="back"/>
							<feBlend  in="SourceGraphic" in2="back" mode="normal"/>
						</filter>
					</defs>
					<mask maskUnits="userSpaceOnUse" x="295.367" y="204.374" width="10.585" height="7.777" id="SVGID_13_">
						<g filter="url(#Adobe_OpacityMaskFilter_3_)">
						</g>
					</mask>
					
						<linearGradient id="SVGID_14_" gradientUnits="userSpaceOnUse" x1="189.8856" y1="-15.2629" x2="195.5642" y2="-9.2294" gradientTransform="matrix(0.9781 -0.208 0.208 0.9781 115.0216 260.6029)">
						<stop  offset="0" style="stop-color:#000000"/>
						<stop  offset="0.5196" style="stop-color:#FFFFFF"/>
						<stop  offset="1" style="stop-color:#FFFFFF"/>
					</linearGradient>
					<path mask="url(#SVGID_13_)" fill="url(#SVGID_14_)" d="M302.12,204.395c-1.424,0.139-2.845,0.844-3.995,1.672
						c-1.292,0.931-3.296,2.499-2.625,4.349c0.582,1.607,2.824,1.857,4.282,1.691c2.447-0.276,5.153-1.466,5.998-3.977
						C306.582,205.747,304.427,204.169,302.12,204.395z M303.22,208.055c-0.588,1.745-2.47,2.573-4.171,2.765
						c-1.014,0.113-2.573-0.06-2.979-1.177c-0.467-1.287,0.928-2.378,1.825-3.025c0.801-0.576,1.79-1.066,2.779-1.163
						C302.279,205.298,303.778,206.395,303.22,208.055z"/>
				</g>
			</mask>
			
				<linearGradient id="SVGID_15_" gradientUnits="userSpaceOnUse" x1="189.8856" y1="-15.2629" x2="195.5642" y2="-9.2294" gradientTransform="matrix(0.9781 -0.208 0.208 0.9781 115.0216 260.6029)">
				<stop  offset="0" style="stop-color:#C5F588"/>
				<stop  offset="0.5196" style="stop-color:#95EC23"/>
				<stop  offset="1" style="stop-color:#A4EF42"/>
			</linearGradient>
			<path opacity="0.7" fill="url(#SVGID_15_)" d="M302.12,204.395c-1.424,0.139-2.845,0.844-3.995,1.672
				c-1.292,0.931-3.296,2.499-2.625,4.349c0.582,1.607,2.824,1.857,4.282,1.691c2.447-0.276,5.153-1.466,5.998-3.977
				C306.582,205.747,304.427,204.169,302.12,204.395z M303.22,208.055c-0.588,1.745-2.47,2.573-4.171,2.765
				c-1.014,0.113-2.573-0.06-2.979-1.177c-0.467-1.287,0.928-2.378,1.825-3.025c0.801-0.576,1.79-1.066,2.779-1.163
				C302.279,205.298,303.778,206.395,303.22,208.055z"/>
			
				<radialGradient id="SVGID_16_" cx="191.8102" cy="-12.6024" r="8.6702" gradientTransform="matrix(0.9781 -0.208 0.208 0.9781 115.0216 260.6029)" gradientUnits="userSpaceOnUse">
				<stop  offset="0" style="stop-color:#C5F588"/>
				<stop  offset="1" style="stop-color:#AAF04F"/>
			</radialGradient>
			<path opacity="0.7" fill="url(#SVGID_16_)" d="M302.685,207.113c-0.042,0.002-0.075-0.005-0.105-0.017
				c-0.064,0.012-0.131,0.025-0.194,0.041c-0.876,0.221-1.741,0.548-2.539,0.978c-0.856,0.463-2.122,1.194-2.364,2.239
				c-0.148,0.644,0.089,1.162,0.591,1.395c0.618,0.107,1.256,0.107,1.785,0.049c0.017-0.002,0.033-0.005,0.05-0.007
				c1.198-0.203,2.402-0.716,3.413-1.26c0.31-0.166,0.702-0.413,1.057-0.71c0.361-0.368,0.667-0.789,0.892-1.271
				c0.017-0.089,0.028-0.181,0.023-0.272C305.24,207.062,303.588,207.063,302.685,207.113z"/>
			
				<radialGradient id="SVGID_17_" cx="188.8619" cy="-17.3009" r="7.3496" gradientTransform="matrix(0.9781 -0.208 0.208 0.9781 115.0216 260.6029)" gradientUnits="userSpaceOnUse">
				<stop  offset="0" style="stop-color:#FFFFFF"/>
				<stop  offset="1" style="stop-color:#030500"/>
			</radialGradient>
			<path fill="url(#SVGID_17_)" d="M301.424,205.589c-0.113-0.045-0.252-0.076-0.422-0.089c-0.879-0.068-1.915,0.485-2.644,0.919
				c-0.845,0.504-2.631,2.167-2.029,3.309c0.646,1.225,2.31,0.157,3.039-0.332C300.051,208.936,302.809,206.145,301.424,205.589z"/>
			
				<radialGradient id="SVGID_18_" cx="189.8471" cy="-13.31" r="1.4431" gradientTransform="matrix(0.9781 -0.208 0.208 0.9781 115.0216 260.6029)" gradientUnits="userSpaceOnUse">
				<stop  offset="0" style="stop-color:#FFFFFF"/>
				<stop  offset="1" style="stop-color:#030500"/>
			</radialGradient>
			<path fill="url(#SVGID_18_)" d="M299.142,206.563c-0.851,0.04-1.483,0.557-1.986,1.21c-0.344,0.447-0.99,1.37-0.334,1.826
				c0.074,0.052,0.176,0.008,0.243-0.033c0.4-0.25,0.594-0.895,0.887-1.261c0.408-0.511,0.852-1.011,1.275-1.511
				C299.298,206.706,299.269,206.557,299.142,206.563z"/>
		</g>
	</g>
	<g>
		
			<radialGradient id="SVGID_19_" cx="142.9656" cy="-26.447" r="9.4599" gradientTransform="matrix(0.7851 -0.2645 0.3192 0.9477 177.6306 272.048)" gradientUnits="userSpaceOnUse">
			<stop  offset="0" style="stop-color:#FFFFFF"/>
			<stop  offset="1" style="stop-color:#030500"/>
		</radialGradient>
		<path opacity="0.2" fill="url(#SVGID_19_)" d="M279.254,200.988c-0.609,0.117-1.174,0.524-1.611,0.986
			c-0.491,0.519-1.244,1.387-0.808,2.313c0.379,0.805,1.376,0.86,1.999,0.729c1.044-0.221,2.132-0.917,2.307-2.231
			C281.305,201.537,280.245,200.798,279.254,200.988z"/>
		<g>
			
				<radialGradient id="SVGID_20_" cx="138.6558" cy="-37.2852" r="7.6945" gradientTransform="matrix(0.7851 -0.2645 0.3192 0.9477 177.6306 272.048)" gradientUnits="userSpaceOnUse">
				<stop  offset="0" style="stop-color:#C5F588"/>
				<stop  offset="0.5196" style="stop-color:#95EC23"/>
				<stop  offset="1" style="stop-color:#A4EF42"/>
			</radialGradient>
			<path fill="url(#SVGID_20_)" d="M277.251,201.717c-0.457,0.481-1.155,1.29-0.75,2.153c0.353,0.75,1.281,0.801,1.859,0.679
				c0.973-0.205,1.983-0.854,2.145-2.077c0.152-1.162-0.836-1.851-1.755-1.674C278.183,200.908,277.657,201.287,277.251,201.717z"/>
			<defs>
				<filter id="Adobe_OpacityMaskFilter_4_" filterUnits="userSpaceOnUse" x="276.379" y="200.771" width="4.142" height="3.829">
					<feFlood  style="flood-color:white;flood-opacity:1" result="back"/>
					<feBlend  in="SourceGraphic" in2="back" mode="normal"/>
				</filter>
			</defs>
			<mask maskUnits="userSpaceOnUse" x="276.379" y="200.771" width="4.142" height="3.829" id="SVGID_21_">
				<g filter="url(#Adobe_OpacityMaskFilter_4_)">
					<defs>
						<filter id="Adobe_OpacityMaskFilter_5_" filterUnits="userSpaceOnUse" x="276.379" y="200.771" width="4.142" height="3.829">
							<feFlood  style="flood-color:white;flood-opacity:1" result="back"/>
							<feBlend  in="SourceGraphic" in2="back" mode="normal"/>
						</filter>
					</defs>
					<mask maskUnits="userSpaceOnUse" x="276.379" y="200.771" width="4.142" height="3.829" id="SVGID_21_">
						<g filter="url(#Adobe_OpacityMaskFilter_5_)">
						</g>
					</mask>
					
						<linearGradient id="SVGID_22_" gradientUnits="userSpaceOnUse" x1="140.7823" y1="-34.8478" x2="143.5425" y2="-31.915" gradientTransform="matrix(0.7851 -0.2645 0.3192 0.9477 177.6306 272.048)">
						<stop  offset="0" style="stop-color:#000000"/>
						<stop  offset="0.5196" style="stop-color:#FFFFFF"/>
						<stop  offset="1" style="stop-color:#FFFFFF"/>
					</linearGradient>
					<path mask="url(#SVGID_21_)" fill="url(#SVGID_22_)" d="M278.75,200.799c-0.567,0.109-1.093,0.488-1.499,0.919
						c-0.457,0.481-1.155,1.29-0.75,2.153c0.353,0.75,1.281,0.801,1.859,0.679c0.973-0.205,1.983-0.854,2.145-2.077
						C280.657,201.311,279.669,200.622,278.75,200.799z M279.461,202.511c-0.111,0.852-0.815,1.304-1.491,1.446
						c-0.403,0.085-1.047,0.048-1.293-0.473c-0.283-0.601,0.204-1.163,0.521-1.498c0.282-0.299,0.648-0.563,1.043-0.639
						C278.881,201.225,279.567,201.704,279.461,202.511z"/>
				</g>
			</mask>
			
				<linearGradient id="SVGID_23_" gradientUnits="userSpaceOnUse" x1="140.7823" y1="-34.8478" x2="143.5425" y2="-31.915" gradientTransform="matrix(0.7851 -0.2645 0.3192 0.9477 177.6306 272.048)">
				<stop  offset="0" style="stop-color:#C5F588"/>
				<stop  offset="0.5196" style="stop-color:#95EC23"/>
				<stop  offset="1" style="stop-color:#A4EF42"/>
			</linearGradient>
			<path opacity="0.7" fill="url(#SVGID_23_)" d="M278.75,200.799c-0.567,0.109-1.093,0.488-1.499,0.919
				c-0.457,0.481-1.155,1.29-0.75,2.153c0.353,0.75,1.281,0.801,1.859,0.679c0.973-0.205,1.983-0.854,2.145-2.077
				C280.657,201.311,279.669,200.622,278.75,200.799z M279.461,202.511c-0.111,0.852-0.815,1.304-1.491,1.446
				c-0.403,0.085-1.047,0.048-1.293-0.473c-0.283-0.601,0.204-1.163,0.521-1.498c0.282-0.299,0.648-0.563,1.043-0.639
				C278.881,201.225,279.567,201.704,279.461,202.511z"/>
			
				<radialGradient id="SVGID_24_" cx="141.7182" cy="-33.5547" r="4.2131" gradientTransform="matrix(0.7851 -0.2645 0.3192 0.9477 177.6306 272.048)" gradientUnits="userSpaceOnUse">
				<stop  offset="0" style="stop-color:#C5F588"/>
				<stop  offset="1" style="stop-color:#AAF04F"/>
			</radialGradient>
			<path opacity="0.7" fill="url(#SVGID_24_)" d="M279.177,202.079c-0.018,0.002-0.032,0-0.045-0.004
				c-0.025,0.007-0.051,0.014-0.075,0.025c-0.339,0.131-0.667,0.313-0.959,0.542c-0.315,0.247-0.774,0.634-0.796,1.14
				c-0.015,0.312,0.12,0.552,0.339,0.648c0.258,0.033,0.518,0.014,0.728-0.03c0.006-0.001,0.013-0.004,0.02-0.005
				c0.47-0.132,0.921-0.413,1.293-0.704c0.113-0.088,0.254-0.218,0.377-0.37c0.119-0.188,0.213-0.396,0.27-0.633
				c0-0.044-0.002-0.087-0.011-0.13C280.208,201.979,279.539,202.028,279.177,202.079z"/>
			
				<radialGradient id="SVGID_25_" cx="140.2848" cy="-35.8385" r="3.5728" gradientTransform="matrix(0.7851 -0.2645 0.3192 0.9477 177.6306 272.048)" gradientUnits="userSpaceOnUse">
				<stop  offset="0" style="stop-color:#FFFFFF"/>
				<stop  offset="1" style="stop-color:#030500"/>
			</radialGradient>
			<path fill="url(#SVGID_25_)" d="M278.555,201.39c-0.049-0.019-0.108-0.029-0.178-0.03c-0.36-0.006-0.741,0.289-1.005,0.518
				c-0.306,0.266-0.91,1.113-0.585,1.64c0.353,0.566,0.95,0.006,1.21-0.25C278.24,203.027,279.156,201.613,278.555,201.39z"/>
			
				<radialGradient id="SVGID_26_" cx="140.7646" cy="-33.8986" r="0.7013" gradientTransform="matrix(0.7851 -0.2645 0.3192 0.9477 177.6306 272.048)" gradientUnits="userSpaceOnUse">
				<stop  offset="0" style="stop-color:#FFFFFF"/>
				<stop  offset="1" style="stop-color:#030500"/>
			</radialGradient>
			<path fill="url(#SVGID_26_)" d="M277.7,201.922c-0.343,0.044-0.56,0.311-0.718,0.637c-0.107,0.224-0.302,0.684-0.003,0.88
				c0.034,0.023,0.072-0.001,0.096-0.022c0.144-0.131,0.176-0.445,0.269-0.629c0.128-0.255,0.272-0.507,0.407-0.759
				C277.773,201.986,277.751,201.915,277.7,201.922z"/>
		</g>
	</g>
	<g>
		
			<radialGradient id="SVGID_27_" cx="168.431" cy="-24.7636" r="5.7002" gradientTransform="matrix(0.7851 -0.2645 0.3192 0.9477 177.6306 272.048)" gradientUnits="userSpaceOnUse">
			<stop  offset="0" style="stop-color:#FFFFFF"/>
			<stop  offset="1" style="stop-color:#030500"/>
		</radialGradient>
		<path opacity="0.2" fill="url(#SVGID_27_)" d="M300.649,199.099c-0.367,0.072-0.707,0.317-0.972,0.594
			c-0.295,0.313-0.748,0.835-0.485,1.395c0.227,0.484,0.829,0.518,1.204,0.438c0.63-0.133,1.286-0.553,1.39-1.346
			C301.886,199.43,301.246,198.985,300.649,199.099z"/>
		<g>
			
				<radialGradient id="SVGID_28_" cx="165.8343" cy="-31.2958" r="4.6376" gradientTransform="matrix(0.7851 -0.2645 0.3192 0.9477 177.6306 272.048)" gradientUnits="userSpaceOnUse">
				<stop  offset="0" style="stop-color:#C5F588"/>
				<stop  offset="0.5196" style="stop-color:#95EC23"/>
				<stop  offset="1" style="stop-color:#A4EF42"/>
			</radialGradient>
			<path fill="url(#SVGID_28_)" d="M299.442,199.539c-0.274,0.29-0.697,0.777-0.451,1.297c0.212,0.452,0.771,0.484,1.12,0.41
				c0.586-0.124,1.194-0.515,1.292-1.252c0.092-0.7-0.503-1.115-1.058-1.009C300.003,199.051,299.687,199.28,299.442,199.539z"/>
			<defs>
				<filter id="Adobe_OpacityMaskFilter_6_" filterUnits="userSpaceOnUse" x="298.917" y="198.968" width="2.496" height="2.308">
					<feFlood  style="flood-color:white;flood-opacity:1" result="back"/>
					<feBlend  in="SourceGraphic" in2="back" mode="normal"/>
				</filter>
			</defs>
			<mask maskUnits="userSpaceOnUse" x="298.917" y="198.968" width="2.496" height="2.308" id="SVGID_29_">
				<g filter="url(#Adobe_OpacityMaskFilter_6_)">
					<defs>
						<filter id="Adobe_OpacityMaskFilter_7_" filterUnits="userSpaceOnUse" x="298.917" y="198.968" width="2.496" height="2.308">
							<feFlood  style="flood-color:white;flood-opacity:1" result="back"/>
							<feBlend  in="SourceGraphic" in2="back" mode="normal"/>
						</filter>
					</defs>
					<mask maskUnits="userSpaceOnUse" x="298.917" y="198.968" width="2.496" height="2.308" id="SVGID_29_">
						<g filter="url(#Adobe_OpacityMaskFilter_7_)">
						</g>
					</mask>
					
						<linearGradient id="SVGID_30_" gradientUnits="userSpaceOnUse" x1="167.1153" y1="-29.8263" x2="168.7785" y2="-28.0592" gradientTransform="matrix(0.7851 -0.2645 0.3192 0.9477 177.6306 272.048)">
						<stop  offset="0" style="stop-color:#000000"/>
						<stop  offset="0.5196" style="stop-color:#FFFFFF"/>
						<stop  offset="1" style="stop-color:#FFFFFF"/>
					</linearGradient>
					<path mask="url(#SVGID_29_)" fill="url(#SVGID_30_)" d="M300.345,198.985c-0.341,0.066-0.658,0.295-0.903,0.554
						c-0.274,0.29-0.697,0.777-0.451,1.297c0.212,0.452,0.771,0.484,1.12,0.41c0.586-0.124,1.194-0.515,1.292-1.252
						C301.495,199.294,300.9,198.878,300.345,198.985z M300.774,200.017c-0.067,0.513-0.491,0.785-0.898,0.872
						c-0.243,0.051-0.633,0.029-0.78-0.286c-0.17-0.362,0.123-0.7,0.314-0.903c0.171-0.18,0.391-0.338,0.628-0.384
						C300.425,199.242,300.837,199.53,300.774,200.017z"/>
				</g>
			</mask>
			
				<linearGradient id="SVGID_31_" gradientUnits="userSpaceOnUse" x1="167.1153" y1="-29.8263" x2="168.7785" y2="-28.0592" gradientTransform="matrix(0.7851 -0.2645 0.3192 0.9477 177.6306 272.048)">
				<stop  offset="0" style="stop-color:#C5F588"/>
				<stop  offset="0.5196" style="stop-color:#95EC23"/>
				<stop  offset="1" style="stop-color:#A4EF42"/>
			</linearGradient>
			<path opacity="0.7" fill="url(#SVGID_31_)" d="M300.345,198.985c-0.341,0.066-0.658,0.295-0.903,0.554
				c-0.274,0.29-0.697,0.777-0.451,1.297c0.212,0.452,0.771,0.484,1.12,0.41c0.586-0.124,1.194-0.515,1.292-1.252
				C301.495,199.294,300.9,198.878,300.345,198.985z M300.774,200.017c-0.067,0.513-0.491,0.785-0.898,0.872
				c-0.243,0.051-0.633,0.029-0.78-0.286c-0.17-0.362,0.123-0.7,0.314-0.903c0.171-0.18,0.391-0.338,0.628-0.384
				C300.425,199.242,300.837,199.53,300.774,200.017z"/>
			
				<radialGradient id="SVGID_32_" cx="167.6797" cy="-29.0464" r="2.5396" gradientTransform="matrix(0.7851 -0.2645 0.3192 0.9477 177.6306 272.048)" gradientUnits="userSpaceOnUse">
				<stop  offset="0" style="stop-color:#C5F588"/>
				<stop  offset="1" style="stop-color:#AAF04F"/>
			</radialGradient>
			<path opacity="0.7" fill="url(#SVGID_32_)" d="M300.602,199.757c-0.009,0.001-0.018-0.001-0.025-0.004
				c-0.015,0.006-0.031,0.01-0.045,0.015c-0.206,0.079-0.403,0.189-0.579,0.328c-0.189,0.148-0.467,0.381-0.48,0.686
				c-0.008,0.189,0.072,0.334,0.204,0.392c0.155,0.02,0.312,0.008,0.439-0.018c0.004-0.002,0.007-0.003,0.012-0.003
				c0.283-0.081,0.555-0.25,0.778-0.424c0.069-0.054,0.153-0.131,0.228-0.224c0.072-0.112,0.128-0.238,0.162-0.381
				c0-0.026-0.002-0.052-0.006-0.079C301.225,199.696,300.821,199.726,300.602,199.757z"/>
			
				<radialGradient id="SVGID_33_" cx="166.8155" cy="-30.4231" r="2.153" gradientTransform="matrix(0.7851 -0.2645 0.3192 0.9477 177.6306 272.048)" gradientUnits="userSpaceOnUse">
				<stop  offset="0" style="stop-color:#FFFFFF"/>
				<stop  offset="1" style="stop-color:#030500"/>
			</radialGradient>
			<path fill="url(#SVGID_33_)" d="M300.228,199.341c-0.029-0.011-0.064-0.018-0.107-0.018c-0.218-0.004-0.446,0.174-0.606,0.312
				c-0.185,0.16-0.548,0.671-0.352,0.988c0.211,0.341,0.572,0.003,0.728-0.15C300.038,200.328,300.59,199.476,300.228,199.341z"/>
			
				<radialGradient id="SVGID_34_" cx="167.1041" cy="-29.2539" r="0.4224" gradientTransform="matrix(0.7851 -0.2645 0.3192 0.9477 177.6306 272.048)" gradientUnits="userSpaceOnUse">
				<stop  offset="0" style="stop-color:#FFFFFF"/>
				<stop  offset="1" style="stop-color:#030500"/>
			</radialGradient>
			<path fill="url(#SVGID_34_)" d="M299.712,199.663c-0.206,0.026-0.338,0.186-0.433,0.384c-0.064,0.133-0.182,0.411-0.002,0.53
				c0.02,0.014,0.043,0,0.058-0.013c0.087-0.08,0.106-0.268,0.161-0.379c0.078-0.154,0.164-0.306,0.246-0.457
				C299.756,199.7,299.743,199.658,299.712,199.663z"/>
		</g>
	</g>
	<g>
		
			<radialGradient id="SVGID_35_" cx="309.6807" cy="268.0884" r="16.2522" gradientTransform="matrix(0.9791 -0.2034 0.2034 0.9791 -146.4472 94.7573)" gradientUnits="userSpaceOnUse">
			<stop  offset="0" style="stop-color:#FFFFFF"/>
			<stop  offset="1" style="stop-color:#030500"/>
		</radialGradient>
		<path opacity="0.2" fill="url(#SVGID_35_)" d="M209.454,279.811c-1.279,0.12-2.558,0.747-3.595,1.483
			c-1.164,0.829-2.971,2.229-2.377,3.89c0.515,1.444,2.529,1.675,3.837,1.531c2.2-0.236,4.636-1.292,5.406-3.539
			C213.456,281.041,211.527,279.62,209.454,279.811z"/>
		<g>
			
				<radialGradient id="SVGID_36_" cx="302.276" cy="249.4666" r="13.223" gradientTransform="matrix(0.9791 -0.2034 0.2034 0.9791 -146.4472 94.7573)" gradientUnits="userSpaceOnUse">
				<stop  offset="0" style="stop-color:#C5F588"/>
				<stop  offset="0.5196" style="stop-color:#95EC23"/>
				<stop  offset="1" style="stop-color:#A4EF42"/>
			</radialGradient>
			<path fill="url(#SVGID_36_)" d="M205.143,280.795c-1.081,0.773-2.762,2.074-2.209,3.624c0.48,1.344,2.352,1.561,3.569,1.429
				c2.045-0.221,4.311-1.205,5.025-3.297c0.679-1.991-1.114-3.315-3.042-3.136C207.296,279.525,206.107,280.107,205.143,280.795z"/>
			<defs>
				<filter id="Adobe_OpacityMaskFilter_8_" filterUnits="userSpaceOnUse" x="202.825" y="279.399" width="8.85" height="6.483">
					<feFlood  style="flood-color:white;flood-opacity:1" result="back"/>
					<feBlend  in="SourceGraphic" in2="back" mode="normal"/>
				</filter>
			</defs>
			<mask maskUnits="userSpaceOnUse" x="202.825" y="279.399" width="8.85" height="6.483" id="SVGID_37_">
				<g filter="url(#Adobe_OpacityMaskFilter_8_)">
					<defs>
						<filter id="Adobe_OpacityMaskFilter_9_" filterUnits="userSpaceOnUse" x="202.825" y="279.399" width="8.85" height="6.483">
							<feFlood  style="flood-color:white;flood-opacity:1" result="back"/>
							<feBlend  in="SourceGraphic" in2="back" mode="normal"/>
						</filter>
					</defs>
					<mask maskUnits="userSpaceOnUse" x="202.825" y="279.399" width="8.85" height="6.483" id="SVGID_37_">
						<g filter="url(#Adobe_OpacityMaskFilter_9_)">
						</g>
					</mask>
					
						<linearGradient id="SVGID_38_" gradientUnits="userSpaceOnUse" x1="305.93" y1="253.6566" x2="310.6727" y2="258.6957" gradientTransform="matrix(0.9791 -0.2034 0.2034 0.9791 -146.4472 94.7573)">
						<stop  offset="0" style="stop-color:#000000"/>
						<stop  offset="0.5196" style="stop-color:#FFFFFF"/>
						<stop  offset="1" style="stop-color:#FFFFFF"/>
					</linearGradient>
					<path mask="url(#SVGID_37_)" fill="url(#SVGID_38_)" d="M208.486,279.415c-1.19,0.11-2.379,0.692-3.343,1.38
						c-1.081,0.773-2.762,2.074-2.209,3.624c0.48,1.344,2.352,1.561,3.569,1.429c2.045-0.221,4.311-1.205,5.025-3.297
						C212.208,280.56,210.415,279.235,208.486,279.415z M209.391,282.476c-0.499,1.455-2.074,2.14-3.495,2.294
						c-0.848,0.091-2.149-0.06-2.483-0.996c-0.385-1.075,0.784-1.98,1.536-2.517c0.67-0.481,1.498-0.885,2.324-0.963
						C208.616,280.169,209.864,281.092,209.391,282.476z"/>
				</g>
			</mask>
			
				<linearGradient id="SVGID_39_" gradientUnits="userSpaceOnUse" x1="305.93" y1="253.6566" x2="310.6727" y2="258.6957" gradientTransform="matrix(0.9791 -0.2034 0.2034 0.9791 -146.4472 94.7573)">
				<stop  offset="0" style="stop-color:#C5F588"/>
				<stop  offset="0.5196" style="stop-color:#95EC23"/>
				<stop  offset="1" style="stop-color:#A4EF42"/>
			</linearGradient>
			<path opacity="0.7" fill="url(#SVGID_39_)" d="M208.486,279.415c-1.19,0.11-2.379,0.692-3.343,1.38
				c-1.081,0.773-2.762,2.074-2.209,3.624c0.48,1.344,2.352,1.561,3.569,1.429c2.045-0.221,4.311-1.205,5.025-3.297
				C212.208,280.56,210.415,279.235,208.486,279.415z M209.391,282.476c-0.499,1.455-2.074,2.14-3.495,2.294
				c-0.848,0.091-2.149-0.06-2.483-0.996c-0.385-1.075,0.784-1.98,1.536-2.517c0.67-0.481,1.498-0.885,2.324-0.963
				C208.616,280.169,209.864,281.092,209.391,282.476z"/>
			
				<radialGradient id="SVGID_40_" cx="307.5377" cy="255.8779" r="7.2423" gradientTransform="matrix(0.9791 -0.2034 0.2034 0.9791 -146.4472 94.7573)" gradientUnits="userSpaceOnUse">
				<stop  offset="0" style="stop-color:#C5F588"/>
				<stop  offset="1" style="stop-color:#AAF04F"/>
			</radialGradient>
			<path opacity="0.7" fill="url(#SVGID_40_)" d="M208.948,281.686c-0.035,0.003-0.063-0.004-0.088-0.013
				c-0.055,0.01-0.11,0.019-0.162,0.031c-0.734,0.183-1.457,0.451-2.124,0.807c-0.719,0.385-1.778,0.99-1.985,1.861
				c-0.126,0.538,0.071,0.972,0.489,1.167c0.514,0.094,1.049,0.096,1.49,0.049c0.014,0,0.028-0.004,0.042-0.005
				c1.002-0.165,2.009-0.589,2.856-1.041c0.258-0.136,0.587-0.34,0.885-0.588c0.303-0.304,0.559-0.656,0.75-1.056
				c0.015-0.076,0.024-0.151,0.022-0.229C211.082,281.655,209.702,281.65,208.948,281.686z"/>
			
				<radialGradient id="SVGID_41_" cx="305.0748" cy="251.9538" r="6.1387" gradientTransform="matrix(0.9791 -0.2034 0.2034 0.9791 -146.4472 94.7573)" gradientUnits="userSpaceOnUse">
				<stop  offset="0" style="stop-color:#FFFFFF"/>
				<stop  offset="1" style="stop-color:#030500"/>
			</radialGradient>
			<path fill="url(#SVGID_41_)" d="M207.9,280.409c-0.093-0.037-0.21-0.065-0.353-0.076c-0.734-0.061-1.602,0.398-2.211,0.759
				c-0.708,0.416-2.206,1.798-1.708,2.752c0.536,1.028,1.931,0.142,2.541-0.265C206.74,283.199,209.055,280.878,207.9,280.409z"/>
			
				<radialGradient id="SVGID_42_" cx="305.8983" cy="255.287" r="1.2054" gradientTransform="matrix(0.9791 -0.2034 0.2034 0.9791 -146.4472 94.7573)" gradientUnits="userSpaceOnUse">
				<stop  offset="0" style="stop-color:#FFFFFF"/>
				<stop  offset="1" style="stop-color:#030500"/>
			</radialGradient>
			<path fill="url(#SVGID_42_)" d="M205.99,281.213c-0.71,0.03-1.24,0.461-1.663,1.001c-0.29,0.373-0.832,1.142-0.287,1.524
				c0.063,0.043,0.147,0.009,0.203-0.025c0.335-0.207,0.501-0.743,0.747-1.05c0.341-0.426,0.714-0.841,1.07-1.257
				C206.121,281.335,206.098,281.208,205.99,281.213z"/>
		</g>
	</g>
	<g>
		
			<radialGradient id="SVGID_43_" cx="313.8654" cy="255.3691" r="2.5803" gradientTransform="matrix(0.9791 -0.2034 0.2034 0.9791 -146.4472 94.7573)" gradientUnits="userSpaceOnUse">
			<stop  offset="0" style="stop-color:#FFFFFF"/>
			<stop  offset="1" style="stop-color:#030500"/>
		</radialGradient>
		<path opacity="0.2" fill="url(#SVGID_43_)" d="M212.509,278.655c-0.204,0.021-0.406,0.12-0.571,0.236
			c-0.185,0.133-0.472,0.353-0.377,0.615c0.083,0.23,0.402,0.269,0.609,0.245c0.35-0.037,0.736-0.205,0.858-0.562
			C213.144,278.851,212.838,278.625,212.509,278.655z"/>
		<g>
			
				<radialGradient id="SVGID_44_" cx="312.6898" cy="252.4121" r="2.1" gradientTransform="matrix(0.9791 -0.2034 0.2034 0.9791 -146.4472 94.7573)" gradientUnits="userSpaceOnUse">
				<stop  offset="0" style="stop-color:#C5F588"/>
				<stop  offset="0.5196" style="stop-color:#95EC23"/>
				<stop  offset="1" style="stop-color:#A4EF42"/>
			</radialGradient>
			<path fill="url(#SVGID_44_)" d="M211.824,278.811c-0.172,0.123-0.438,0.33-0.35,0.576c0.076,0.214,0.373,0.249,0.567,0.228
				c0.324-0.035,0.684-0.19,0.797-0.524c0.108-0.315-0.176-0.527-0.483-0.497C212.166,278.609,211.977,278.704,211.824,278.811z"/>
			<defs>
				<filter id="Adobe_OpacityMaskFilter_10_" filterUnits="userSpaceOnUse" x="211.457" y="278.591" width="1.405" height="1.03">
					<feFlood  style="flood-color:white;flood-opacity:1" result="back"/>
					<feBlend  in="SourceGraphic" in2="back" mode="normal"/>
				</filter>
			</defs>
			<mask maskUnits="userSpaceOnUse" x="211.457" y="278.591" width="1.405" height="1.03" id="SVGID_45_">
				<g filter="url(#Adobe_OpacityMaskFilter_10_)">
					<defs>
						<filter id="Adobe_OpacityMaskFilter_11_" filterUnits="userSpaceOnUse" x="211.457" y="278.591" width="1.405" height="1.03">
							<feFlood  style="flood-color:white;flood-opacity:1" result="back"/>
							<feBlend  in="SourceGraphic" in2="back" mode="normal"/>
						</filter>
					</defs>
					<mask maskUnits="userSpaceOnUse" x="211.457" y="278.591" width="1.405" height="1.03" id="SVGID_45_">
						<g filter="url(#Adobe_OpacityMaskFilter_11_)">
						</g>
					</mask>
					
						<linearGradient id="SVGID_46_" gradientUnits="userSpaceOnUse" x1="313.2697" y1="253.078" x2="314.0226" y2="253.878" gradientTransform="matrix(0.9791 -0.2034 0.2034 0.9791 -146.4472 94.7573)">
						<stop  offset="0" style="stop-color:#000000"/>
						<stop  offset="0.5196" style="stop-color:#FFFFFF"/>
						<stop  offset="1" style="stop-color:#FFFFFF"/>
					</linearGradient>
					<path mask="url(#SVGID_45_)" fill="url(#SVGID_46_)" d="M212.355,278.594c-0.189,0.016-0.377,0.11-0.53,0.218
						c-0.172,0.123-0.438,0.33-0.35,0.576c0.076,0.214,0.373,0.249,0.567,0.228c0.324-0.035,0.684-0.19,0.797-0.524
						C212.946,278.775,212.662,278.564,212.355,278.594z M212.499,279.079c-0.08,0.23-0.33,0.338-0.555,0.364
						c-0.134,0.015-0.342-0.01-0.395-0.158c-0.061-0.172,0.124-0.314,0.244-0.4c0.107-0.074,0.238-0.14,0.37-0.152
						C212.376,278.713,212.573,278.86,212.499,279.079z"/>
				</g>
			</mask>
			
				<linearGradient id="SVGID_47_" gradientUnits="userSpaceOnUse" x1="313.2697" y1="253.078" x2="314.0226" y2="253.878" gradientTransform="matrix(0.9791 -0.2034 0.2034 0.9791 -146.4472 94.7573)">
				<stop  offset="0" style="stop-color:#C5F588"/>
				<stop  offset="0.5196" style="stop-color:#95EC23"/>
				<stop  offset="1" style="stop-color:#A4EF42"/>
			</linearGradient>
			<path opacity="0.7" fill="url(#SVGID_47_)" d="M212.355,278.594c-0.189,0.016-0.377,0.11-0.53,0.218
				c-0.172,0.123-0.438,0.33-0.35,0.576c0.076,0.214,0.373,0.249,0.567,0.228c0.324-0.035,0.684-0.19,0.797-0.524
				C212.946,278.775,212.662,278.564,212.355,278.594z M212.499,279.079c-0.08,0.23-0.33,0.338-0.555,0.364
				c-0.134,0.015-0.342-0.01-0.395-0.158c-0.061-0.172,0.124-0.314,0.244-0.4c0.107-0.074,0.238-0.14,0.37-0.152
				C212.376,278.713,212.573,278.86,212.499,279.079z"/>
			
				<radialGradient id="SVGID_48_" cx="313.5247" cy="253.4306" r="1.1488" gradientTransform="matrix(0.9791 -0.2034 0.2034 0.9791 -146.4472 94.7573)" gradientUnits="userSpaceOnUse">
				<stop  offset="0" style="stop-color:#C5F588"/>
				<stop  offset="1" style="stop-color:#AAF04F"/>
			</radialGradient>
			<path opacity="0.7" fill="url(#SVGID_48_)" d="M212.428,278.953c-0.005,0.002-0.01,0-0.014,0c-0.009,0-0.017,0.002-0.026,0.004
				c-0.116,0.029-0.231,0.071-0.337,0.126c-0.114,0.063-0.282,0.159-0.315,0.298c-0.021,0.085,0.012,0.153,0.077,0.187
				c0.083,0.014,0.167,0.014,0.237,0.006c0.002,0,0.005-0.002,0.005-0.002c0.161-0.024,0.32-0.092,0.456-0.164
				c0.04-0.021,0.092-0.054,0.139-0.093c0.049-0.049,0.09-0.105,0.12-0.169c0.002-0.012,0.004-0.023,0.003-0.035
				C212.767,278.947,212.548,278.947,212.428,278.953z"/>
			
				<radialGradient id="SVGID_49_" cx="313.134" cy="252.8061" r="0.9752" gradientTransform="matrix(0.9791 -0.2034 0.2034 0.9791 -146.4472 94.7573)" gradientUnits="userSpaceOnUse">
				<stop  offset="0" style="stop-color:#FFFFFF"/>
				<stop  offset="1" style="stop-color:#030500"/>
			</radialGradient>
			<path fill="url(#SVGID_49_)" d="M212.262,278.752c-0.015-0.007-0.033-0.011-0.056-0.014c-0.117-0.011-0.254,0.063-0.351,0.12
				c-0.113,0.066-0.351,0.287-0.271,0.438c0.085,0.163,0.306,0.022,0.404-0.041C212.078,279.194,212.445,278.825,212.262,278.752z"
				/>
			
				<radialGradient id="SVGID_50_" cx="313.2649" cy="253.3369" r="0.1913" gradientTransform="matrix(0.9791 -0.2034 0.2034 0.9791 -146.4472 94.7573)" gradientUnits="userSpaceOnUse">
				<stop  offset="0" style="stop-color:#FFFFFF"/>
				<stop  offset="1" style="stop-color:#030500"/>
			</radialGradient>
			<path fill="url(#SVGID_50_)" d="M211.96,278.879c-0.114,0.005-0.197,0.074-0.265,0.159c-0.045,0.059-0.131,0.181-0.045,0.241
				c0.011,0.007,0.024,0.002,0.032-0.004c0.054-0.033,0.081-0.118,0.119-0.166c0.055-0.069,0.113-0.134,0.17-0.201
				C211.98,278.897,211.976,278.878,211.96,278.879z"/>
		</g>
	</g>
	<defs>
		<filter id="Adobe_OpacityMaskFilter_12_" filterUnits="userSpaceOnUse" x="222.319" y="220.585" width="51.265" height="39.791">
			<feColorMatrix  type="matrix" values="1 0 0 0 0  0 1 0 0 0  0 0 1 0 0  0 0 0 1 0"/>
		</filter>
	</defs>
	<mask maskUnits="userSpaceOnUse" x="222.319" y="220.585" width="51.265" height="39.791" id="SVGID_51_">
		<g filter="url(#Adobe_OpacityMaskFilter_12_)">
			<defs>
				
					<filter id="Adobe_OpacityMaskFilter_13_" filterUnits="userSpaceOnUse" x="222.319" y="220.585" width="51.265" height="39.791">
					<feFlood  style="flood-color:white;flood-opacity:1" result="back"/>
					<feBlend  in="SourceGraphic" in2="back" mode="normal"/>
				</filter>
			</defs>
			<mask maskUnits="userSpaceOnUse" x="222.319" y="220.585" width="51.265" height="39.791" id="SVGID_51_">
				<g filter="url(#Adobe_OpacityMaskFilter_13_)">
				</g>
			</mask>
			<radialGradient id="SVGID_52_" cx="233.6212" cy="219.5801" r="52.8909" gradientUnits="userSpaceOnUse">
				<stop  offset="0" style="stop-color:#FFFFFF"/>
				<stop  offset="1" style="stop-color:#000000"/>
			</radialGradient>
			<path mask="url(#SVGID_51_)" fill="url(#SVGID_52_)" d="M232.213,223.416c1.893,1.76,3.059,3.656,5.995,3.372
				c2.636-0.254,4.884-2.05,6.516-4.031c1.689-2.049,2.841-3.192,5.102-0.932c4.296,4.295,6.443,3.125,10.152,1.367
				c3.709-1.757,7.615-0.194,6.248,4.296c-1.367,4.49,5.271-1.172,6.638,6.247c1.366,7.419,2.454,20.997-13.276,25.772
				c-10.934,3.32-12.182-4.103-17.181-1.757c-10.767,5.051-18.632-0.616-14.141-4.717c4.49-4.101,3.832-8.386-1.245-11.9
				c-5.075-3.515-6.922-7.318-1.065-8.88c2.285-0.609,2.837-2.854,3.005-4.93c0.09-1.111-0.358-4.099,0.952-4.74
				C230.649,222.222,231.436,222.693,232.213,223.416z"/>
		</g>
	</mask>
	<radialGradient id="SVGID_53_" cx="233.6212" cy="219.5801" r="52.8909" gradientUnits="userSpaceOnUse">
		<stop  offset="0" style="stop-color:#FFFFFF"/>
		<stop  offset="1" style="stop-color:#8FEB17"/>
	</radialGradient>
	<path fill="url(#SVGID_53_)" d="M232.213,223.416c1.893,1.76,3.059,3.656,5.995,3.372c2.636-0.254,4.884-2.05,6.516-4.031
		c1.689-2.049,2.841-3.192,5.102-0.932c4.296,4.295,6.443,3.125,10.152,1.367c3.709-1.757,7.615-0.194,6.248,4.296
		c-1.367,4.49,5.271-1.172,6.638,6.247c1.366,7.419,2.454,20.997-13.276,25.772c-10.934,3.32-12.182-4.103-17.181-1.757
		c-10.767,5.051-18.632-0.616-14.141-4.717c4.49-4.101,3.832-8.386-1.245-11.9c-5.075-3.515-6.922-7.318-1.065-8.88
		c2.285-0.609,2.837-2.854,3.005-4.93c0.09-1.111-0.358-4.099,0.952-4.74C230.649,222.222,231.436,222.693,232.213,223.416z"/>
	<defs>
		<filter id="Adobe_OpacityMaskFilter_14_" filterUnits="userSpaceOnUse" x="226.038" y="222.644" width="43.197" height="24.229">
			<feColorMatrix  type="matrix" values="1 0 0 0 0  0 1 0 0 0  0 0 1 0 0  0 0 0 1 0"/>
		</filter>
	</defs>
	<mask maskUnits="userSpaceOnUse" x="226.038" y="222.644" width="43.197" height="24.229" id="SVGID_54_">
		<g filter="url(#Adobe_OpacityMaskFilter_14_)">
			<defs>
				
					<filter id="Adobe_OpacityMaskFilter_15_" filterUnits="userSpaceOnUse" x="226.038" y="222.644" width="43.197" height="24.229">
					<feFlood  style="flood-color:white;flood-opacity:1" result="back"/>
					<feBlend  in="SourceGraphic" in2="back" mode="normal"/>
				</filter>
			</defs>
			<mask maskUnits="userSpaceOnUse" x="226.038" y="222.644" width="43.197" height="24.229" id="SVGID_54_">
				<g filter="url(#Adobe_OpacityMaskFilter_15_)">
				</g>
			</mask>
			<radialGradient id="SVGID_55_" cx="246.823" cy="209.6432" r="35.6649" gradientUnits="userSpaceOnUse">
				<stop  offset="0" style="stop-color:#FFFFFF"/>
				<stop  offset="0.1021" style="stop-color:#FAFAFA"/>
				<stop  offset="0.2255" style="stop-color:#EBEBEB"/>
				<stop  offset="0.3599" style="stop-color:#D3D3D3"/>
				<stop  offset="0.5024" style="stop-color:#B0B0B0"/>
				<stop  offset="0.651" style="stop-color:#848484"/>
				<stop  offset="0.8049" style="stop-color:#4F4F4F"/>
				<stop  offset="0.9603" style="stop-color:#101010"/>
				<stop  offset="0.9979" style="stop-color:#000000"/>
			</radialGradient>
			<path mask="url(#SVGID_54_)" fill="url(#SVGID_55_)" d="M234.351,227.27c0,0,4.655,3.665,8.627-0.48
				c3.972-4.145,4.317-5.7,6.908-2.245c2.59,3.454,6.39,1.554,9.845,0c3.454-1.554,5.872-0.518,4.663,3.8
				c-1.208,4.318,3.108,1.037,4.663,4.836c1.555,3.798-7.205,11.946-19.203,13.445c-18.159,2.27-27.129-11.836-22.696-12.551
				C233.185,233.102,229.688,225.197,234.351,227.27z"/>
		</g>
	</mask>
	<radialGradient id="SVGID_56_" cx="246.823" cy="209.6432" r="35.6649" gradientUnits="userSpaceOnUse">
		<stop  offset="0" style="stop-color:#FFFFFF"/>
		<stop  offset="0.9979" style="stop-color:#FFFFFF"/>
	</radialGradient>
	<path fill="url(#SVGID_56_)" d="M234.351,227.27c0,0,4.655,3.665,8.627-0.48c3.972-4.145,4.317-5.7,6.908-2.245
		c2.59,3.454,6.39,1.554,9.845,0c3.454-1.554,5.872-0.518,4.663,3.8c-1.208,4.318,3.108,1.037,4.663,4.836
		c1.555,3.798-7.205,11.946-19.203,13.445c-18.159,2.27-27.129-11.836-22.696-12.551
		C233.185,233.102,229.688,225.197,234.351,227.27z"/>
	<g>
		<radialGradient id="SVGID_57_" cx="244.3289" cy="243.575" r="95.7779" gradientUnits="userSpaceOnUse">
			<stop  offset="0" style="stop-color:#C5F588"/>
			<stop  offset="0.5196" style="stop-color:#95EC23"/>
			<stop  offset="1" style="stop-color:#A4EF42"/>
		</radialGradient>
		<path fill="url(#SVGID_57_)" d="M309.837,260.801c-0.162-4.107-7.249-4.54-12.373-4.54c-5.125,0-7.248-0.879-4.539-2.343
			c2.709-1.464,0.512-2.635-2.563-2.415c-3.075,0.22-11.642,0.513-11.715-1.758c-0.074-2.27,5.638-1.829,4.978-3.587
			c-0.659-1.757-5.638-0.22-5.857-1.757c-0.22-1.538,1.39-3.587,8.273-3.368c6.882,0.22,8.639-3.002,6.369-4.686
			c-2.27-1.684-6.736,0.074-10.616,2.123c-3.88,2.051-7.102,1.685-6.296-1.537c1.538-5.125,6.517-3.734,15.961-2.708
			c9.444,1.023,14.717-5.785,9.738-8.421c-4.979-2.636-11.056,0.074-17.133,2.123c-5.853,1.975-4.168-0.396-4.624-0.574
			c-1.677,3.194,3.014,2.021,10.261-0.305c7.761-2.488,13.764-0.438,10.249,3.661c-3.513,4.1-13.178,1.757-17.717,1.025
			c-4.54-0.732-8.2,2.344-7.321,6.444c0.879,4.1,2.929,2.343,1.611,5.71c-1.318,3.369,4.246,1.904,1.611,3.954
			c-2.636,2.05-0.586,4.98,7.321,5.126c4.688,0.086,6.881,0.292,4.54,1.756c-2.343,1.464-1.318,3.222,7.467,3.222
			c8.786,0,12.592,2.782,8.932,5.564c-3.66,2.78-16.693-3.659-21.086-6.149c-4.393-2.491-10.25-2.052-10.25,0.146
			c0,2.196-0.879,3.66-2.49,2.344c-1.61-1.319-2.781,0.73-3.075,3.806c-0.293,3.074-1.611-0.586-2.636,1.024
			c-1.026,1.609,1.318,5.124,6.15,9.225c4.433,3.761,8.346,6.298,8.346,10.982c0,4.686-8.932,8.2-11.129-3.953
			c-2.196-12.153-5.418-15.522-9.225-16.108c-3.807-0.585-6.296,4.101-5.418,7.907c0.879,3.807,1.171,6.442-0.293,5.565
			c-1.465-0.879-0.586-7.761-2.197-7.321c-1.611,0.438-1.611,4.685-2.343,3.074c-0.732-1.61-2.635-4.538-1.172,4.247
			c1.464,8.787-1.904,17.132-8.199,10.689c-6.298-6.442,4.978-15.082,3.66-18.158c-1.318-3.074-4.54-2.048-7.029,1.467
			c-2.489,3.513,0.146-4.394-3.514-1.319c-3.661,3.074-4.832,11.86-4.978,17.132c-0.147,5.272-1.611,3.954-1.904,1.465
			c-0.292-2.488-1.903-3.515-3.66,5.564c-1.758,9.078-2.783,18.449-9.958,14.788c-7.175-3.66-0.586-12.446,4.1-17.569
			c4.686-5.126,6.296-7.03,5.858-8.934c-0.44-1.903-5.272,1.903-3.954-0.733c1.317-2.635,9.582-8.996,12.04-13.913
			c2.458-4.915-1.639-6.966-4.507-4.779c-2.867,2.184-4.371,3.004-2.867-0.41c1.501-3.413-4.234-1.366-9.288,4.097
			c-5.053,5.462-11.632,9.734-12.804,4.464c-1.339-6.023,5.976-9.927,11.439-11.838c5.463-1.912,10.653-3.55,8.877-4.918
			c-1.775-1.365-8.741,0.411-11.881,1.641c-3.141,1.228-8.741,4.096-7.512,1.092c1.229-3.004,7.921-3.688,16.115-4.098
			c8.195-0.41,8.741-4.097,7.921-5.189c-0.819-1.093-3.141-0.956-1.229-1.912c1.912-0.956,1.912-3.277-0.956-5.462
			c-2.868-2.185-9.424-2.049-13.111-0.683c-3.687,1.365-4.644,0.819-1.639-1.092c3.005-1.912-1.775-3.005-9.968-2.869
			c-2.741,0.045-3.876-0.382-4.175-0.972c-0.106,0.145-0.202,0.3-0.275,0.473c-0.781,2.099,2.147,2.343,6.589,2.049
			c4.442-0.291,6.882,0.245,6.785,1.074c-0.097,0.83-4.979,0.147-4.832,2.879c0.147,2.734,6.492,0.489,9.616-0.535
			c3.124-1.026,9.225-1.27,11.47,1.659c1.416,2.001-0.049,3.172-1.903,3.416c-1.855,0.244-1.855,1.489,0.122,1.489
			c1.977,0,4.394,2.417-0.878,4.1c-5.271,1.685-18.158-1.245-21.745,5.711c-1.099,2.854,1.804,3.971,6.81,1.611
			c7.76-3.662,11.934-5.053,13.324-3.954c1.391,1.098-9.005,2.271-15.521,7.614c-6.516,5.345-4.833,11.056-2.123,12.372
			c2.708,1.318,8.492-2.196,13.398-7.467c4.905-5.271,7.541-5.858,5.784-3.076c-1.757,2.784-1.392,5.783,1.317,2.93
			c2.709-2.856,6.443-4.686,6.663-2.125c0.219,2.563-3.348,7.575-9.299,13.179c-6.296,5.93-7.76,8.934-6.442,10.179
			c1.317,1.244,5.271-5.713,6.735-5.491c1.464,0.218-0.586,3.294-7.248,10.396c-6.662,7.102-6.955,14.789-1.83,17.427
			c5.125,2.635,11.274-0.367,12.153-11.715c0.878-11.348,1.831-10.544,1.977-8.42c0.146,2.122,0.586,3.074,1.611,2.708
			c1.024-0.366,1.684-4.175,2.196-10.688c0.513-6.517,2.343-9.884,3.881-11.057c1.537-1.173,0,4.247,1.83,3.515
			c1.83-0.732,3.295-5.784,5.271-6.004c1.977-0.22,3.148,2.856-0.219,6.15c-3.369,3.295-6.297,12.375,0.878,15.228
			c7.176,2.855,10.031-4.831,8.64-10.396c-1.391-5.564-0.439-6.296,0-4.465c0.44,1.828,0.586,1.244,0.732-0.733
			c0.147-1.977,1.683-3.221,1.683-1.244c0,1.978-1.17,9.444,2.344,9.591c3.514,0.145,1.171-6.369,0.439-10.25
			c-0.733-3.881,1.172-7.834,3.881-7.98c2.708-0.146,6.535,3.421,7.907,11.276c1.317,7.54,2.855,14.567,9.225,14.13
			c6.369-0.44,6.735-10.031,0.22-15.083c-6.517-5.053-9.591-7.54-9.152-10.031c0.219-0.877,1.098,0.44,1.831,1.465
			c0.732,1.026,3.221,2.05,0.951-1.538c-2.27-3.586,0.293-7.319,2.489-3.293c2.197,4.025,4.101,10.03,6.15,8.859
			c2.05-1.174-5.101-7.445-4.49-8.956c0.491-1.219,2.831,2.049,3.221,0.878c0.392-1.173-3.71-4.1-1.66-5.467
			c3.125-2.342,11.325,2.049,21.574,6.442C308.789,269.072,309.96,263.898,309.837,260.801z"/>
	</g>
	<g>
		<radialGradient id="SVGID_58_" cx="236.3484" cy="223.9751" r="0.151" gradientUnits="userSpaceOnUse">
			<stop  offset="0" style="stop-color:#C5F588"/>
			<stop  offset="0.5196" style="stop-color:#95EC23"/>
			<stop  offset="1" style="stop-color:#A4EF42"/>
		</radialGradient>
		<path fill="url(#SVGID_58_)" d="M236.147,223.904c0.129,0.054,0.264,0.101,0.403,0.142
			C236.412,224.004,236.279,223.956,236.147,223.904z"/>
		<radialGradient id="SVGID_59_" cx="239.4802" cy="230.1229" r="81.5222" gradientUnits="userSpaceOnUse">
			<stop  offset="0" style="stop-color:#C5F588"/>
			<stop  offset="0.5196" style="stop-color:#95EC23"/>
			<stop  offset="1" style="stop-color:#A4EF42"/>
		</radialGradient>
		<path fill="url(#SVGID_59_)" d="M289.791,212.005c-2.119,6.356-6.356,8.827-10.063,11.299c-2.337,1.559-3.059,2.905-2.346,3.202
			c0.022-0.081,0.053-0.167,0.096-0.265c0.659-1.463,5.491-2.708,9.664-6.589c4.103-3.814,6.361-12.933,1.426-13.654
			C289.841,207.071,290.823,208.907,289.791,212.005z"/>
		<radialGradient id="SVGID_60_" cx="239.4751" cy="230.1518" r="81.8395" gradientUnits="userSpaceOnUse">
			<stop  offset="0" style="stop-color:#C5F588"/>
			<stop  offset="0.5196" style="stop-color:#95EC23"/>
			<stop  offset="1" style="stop-color:#A4EF42"/>
		</radialGradient>
		<path fill="url(#SVGID_60_)" d="M236.55,224.046c0.116,0.037,0.225,0.061,0.33,0.08
			C236.766,224.103,236.655,224.077,236.55,224.046z"/>
		<radialGradient id="SVGID_61_" cx="239.4789" cy="230.1226" r="81.5226" gradientUnits="userSpaceOnUse">
			<stop  offset="0" style="stop-color:#C5F588"/>
			<stop  offset="0.5196" style="stop-color:#95EC23"/>
			<stop  offset="1" style="stop-color:#A4EF42"/>
		</radialGradient>
		<path fill="url(#SVGID_61_)" d="M271.605,196.821c-6.356,8.651-9.524,14.447-7.234,16.316c-1.098-2.635,1.903-5.711,6.955-11.714
			c5.351-7.51,4.232-12.492,1.1-13.962C274.053,189.211,275.017,192.176,271.605,196.821z"/>
		<radialGradient id="SVGID_62_" cx="239.4782" cy="230.1236" r="81.5274" gradientUnits="userSpaceOnUse">
			<stop  offset="0" style="stop-color:#C5F588"/>
			<stop  offset="0.5196" style="stop-color:#95EC23"/>
			<stop  offset="1" style="stop-color:#A4EF42"/>
		</radialGradient>
		<path fill="url(#SVGID_62_)" d="M250.594,200.529c-3.178,9.181-3.743,15.8,0.159,18.759c-2.123-2.05-3.076-3.734,0.366-13.472
			c3.298-9.176,1.119-15.118-1.997-14.4C250.78,192.466,252.541,194.908,250.594,200.529z"/>
		<radialGradient id="SVGID_63_" cx="239.4782" cy="230.1226" r="81.5237" gradientUnits="userSpaceOnUse">
			<stop  offset="0" style="stop-color:#C5F588"/>
			<stop  offset="0.5196" style="stop-color:#95EC23"/>
			<stop  offset="1" style="stop-color:#A4EF42"/>
		</radialGradient>
		<path fill="url(#SVGID_63_)" d="M230.114,205.119c1.03,10.131,1.378,16.988,6.033,18.785c-3.888-1.597-2.87-8.517-4.43-17.942
			c-0.756-4.57-3.431-7.446-6.61-8.577C227.553,198.693,229.697,201.016,230.114,205.119z"/>
	</g>
	<g>
		<radialGradient id="SVGID_64_" cx="239.4792" cy="230.1232" r="81.5271" gradientUnits="userSpaceOnUse">
			<stop  offset="0" style="stop-color:#C5F588"/>
			<stop  offset="0.5196" style="stop-color:#95EC23"/>
			<stop  offset="1" style="stop-color:#A4EF42"/>
		</radialGradient>
		<path fill="url(#SVGID_64_)" d="M214.683,231.001c-10.524-3.007-12.15-8.501-12.178-11.527c-0.621,0.876-0.869,2.051-0.628,3.307
			c1.341,7.016,12.668,9.283,12.668,9.283c2.19,0.651,4.691,1.645,4.766,2.749c0.073,1.103-1.472,0.808-1.472,1.359
			c0,0.012,0.003,0.022,0.005,0.033C220.665,235.115,220.067,232.977,214.683,231.001z"/>
	</g>
	<g>
		<defs>
			<filter id="Adobe_OpacityMaskFilter_16_" filterUnits="userSpaceOnUse" x="214.611" y="198.579" width="14.989" height="20.649">
				<feFlood  style="flood-color:white;flood-opacity:1" result="back"/>
				<feBlend  in="SourceGraphic" in2="back" mode="normal"/>
			</filter>
		</defs>
		<mask maskUnits="userSpaceOnUse" x="214.611" y="198.579" width="14.989" height="20.649" id="SVGID_65_">
			<g filter="url(#Adobe_OpacityMaskFilter_16_)">
				<defs>
					
						<filter id="Adobe_OpacityMaskFilter_17_" filterUnits="userSpaceOnUse" x="214.611" y="198.579" width="14.989" height="20.649">
						<feFlood  style="flood-color:white;flood-opacity:1" result="back"/>
						<feBlend  in="SourceGraphic" in2="back" mode="normal"/>
					</filter>
				</defs>
				<mask maskUnits="userSpaceOnUse" x="214.611" y="198.579" width="14.989" height="20.649" id="SVGID_65_">
					<g filter="url(#Adobe_OpacityMaskFilter_17_)">
					</g>
				</mask>
				<radialGradient id="SVGID_66_" cx="216.8306" cy="199.7636" r="23.3349" gradientUnits="userSpaceOnUse">
					<stop  offset="0" style="stop-color:#FFFFFF"/>
					<stop  offset="1" style="stop-color:#000000"/>
				</radialGradient>
				<path mask="url(#SVGID_65_)" fill="url(#SVGID_66_)" d="M218.002,199.568c0,0-7.224,3.905-0.585,13.666
					c6.637,9.763,13.666,7.225,11.909-4.88C228.155,199.178,222.103,197.03,218.002,199.568z"/>
			</g>
		</mask>
		<radialGradient id="SVGID_67_" cx="216.8306" cy="199.7636" r="23.3349" gradientUnits="userSpaceOnUse">
			<stop  offset="0" style="stop-color:#FFFFFF"/>
			<stop  offset="1" style="stop-color:#8FEB17"/>
		</radialGradient>
		<path fill="url(#SVGID_67_)" d="M218.002,199.568c0,0-7.224,3.905-0.585,13.666c6.637,9.763,13.666,7.225,11.909-4.88
			C228.155,199.178,222.103,197.03,218.002,199.568z"/>
		<radialGradient id="SVGID_68_" cx="211.1532" cy="201.2459" r="16.7302" gradientUnits="userSpaceOnUse">
			<stop  offset="0" style="stop-color:#FFFFFF"/>
			<stop  offset="1" style="stop-color:#030500"/>
		</radialGradient>
		<path fill="url(#SVGID_68_)" d="M219.564,200.74c0,0-1.757,1.952,1.561,9.565c3.319,7.615-3.124,3.709-5.076-2.343
			C214.097,201.911,219.369,198.787,219.564,200.74z"/>
	</g>
	<g>
		
			<radialGradient id="SVGID_69_" cx="453.589" cy="71.024" r="14.0257" gradientTransform="matrix(-0.1416 0.7639 1.0189 0.1888 253.1237 -168.3169)" gradientUnits="userSpaceOnUse">
			<stop  offset="0" style="stop-color:#FFFFFF"/>
			<stop  offset="1" style="stop-color:#030500"/>
		</radialGradient>
		<path fill="url(#SVGID_69_)" d="M261.937,203.528c-0.92-1.153,0.213-6.338,0.44-7.3c0.45-1.913,1.225-4.385,2.493-6.071
			c0.893-1.186,2.865-2.663,4.97-2.184c5.892,1.34,1.447,8.356-0.227,10.362C268.776,199.336,263.851,205.928,261.937,203.528z"/>
		
			<radialGradient id="SVGID_70_" cx="451.855" cy="74.5776" r="7.7719" gradientTransform="matrix(-0.1416 0.7639 1.0189 0.1888 253.1237 -168.3169)" gradientUnits="userSpaceOnUse">
			<stop  offset="0" style="stop-color:#FFFFFF"/>
			<stop  offset="1" style="stop-color:#030500"/>
		</radialGradient>
		<path fill="url(#SVGID_70_)" d="M262.647,200.293c0.173-2.812,0.712-9.041,3.782-10.949c1.835-1.14,4.813-1.167,5.976,0.908
			c0.048,0.087-0.086,0.189-0.2,0.13c-1.038-0.542-2.41-0.732-3.525-0.416c-1.269,0.358-1.843,1.403-2.315,2.297
			c-0.945,1.788-1.628,3.708-2.335,5.574C264.021,197.86,262.645,200.324,262.647,200.293z"/>
	</g>
	<g>
		<defs>
			<filter id="Adobe_OpacityMaskFilter_18_" filterUnits="userSpaceOnUse" x="276.527" y="207.243" width="13.679" height="16.331">
				<feFlood  style="flood-color:white;flood-opacity:1" result="back"/>
				<feBlend  in="SourceGraphic" in2="back" mode="normal"/>
			</filter>
		</defs>
		<mask maskUnits="userSpaceOnUse" x="276.527" y="207.243" width="13.679" height="16.331" id="SVGID_71_">
			<g filter="url(#Adobe_OpacityMaskFilter_18_)">
				<defs>
					
						<filter id="Adobe_OpacityMaskFilter_19_" filterUnits="userSpaceOnUse" x="276.527" y="207.243" width="13.679" height="16.331">
						<feFlood  style="flood-color:white;flood-opacity:1" result="back"/>
						<feBlend  in="SourceGraphic" in2="back" mode="normal"/>
					</filter>
				</defs>
				<mask maskUnits="userSpaceOnUse" x="276.527" y="207.243" width="13.679" height="16.331" id="SVGID_71_">
					<g filter="url(#Adobe_OpacityMaskFilter_19_)">
					</g>
				</mask>
				
					<linearGradient id="SVGID_72_" gradientUnits="userSpaceOnUse" x1="492.5642" y1="121.1721" x2="494.0691" y2="133.3991" gradientTransform="matrix(-0.3013 0.7161 0.7773 0.3271 333.8515 -178.6791)">
					<stop  offset="0" style="stop-color:#000000"/>
					<stop  offset="0.5196" style="stop-color:#FFFFFF"/>
					<stop  offset="1" style="stop-color:#FFFFFF"/>
				</linearGradient>
				<path mask="url(#SVGID_71_)" fill="url(#SVGID_72_)" d="M276.527,222.564c-0.001-0.126,0.01-0.265,0.03-0.418
					c0.207-1.46,1.208-2.644,2.012-3.831c1.186-1.749,2.295-3.531,3.263-5.405c0.917-1.777,1.816-3.697,3.517-4.916
					c1.916-1.375,4.499-0.898,4.819,1.74c0.282,2.318-1.048,4.549-2.422,6.275c-1.886,2.366-4.222,4.359-6.792,6.048
					C280.006,222.679,276.536,224.822,276.527,222.564z"/>
			</g>
		</mask>
		
			<linearGradient id="SVGID_73_" gradientUnits="userSpaceOnUse" x1="492.5642" y1="121.1721" x2="494.0691" y2="133.3991" gradientTransform="matrix(-0.3013 0.7161 0.7773 0.3271 333.8515 -178.6791)">
			<stop  offset="0" style="stop-color:#C5F588"/>
			<stop  offset="0.5196" style="stop-color:#95EC23"/>
			<stop  offset="1" style="stop-color:#A4EF42"/>
		</linearGradient>
		<path fill="url(#SVGID_73_)" d="M276.527,222.564c-0.001-0.126,0.01-0.265,0.03-0.418c0.207-1.46,1.208-2.644,2.012-3.831
			c1.186-1.749,2.295-3.531,3.263-5.405c0.917-1.777,1.816-3.697,3.517-4.916c1.916-1.375,4.499-0.898,4.819,1.74
			c0.282,2.318-1.048,4.549-2.422,6.275c-1.886,2.366-4.222,4.359-6.792,6.048C280.006,222.679,276.536,224.822,276.527,222.564z"/>
		
			<radialGradient id="SVGID_74_" cx="486.6928" cy="119.3147" r="14.0266" gradientTransform="matrix(-0.3013 0.7161 0.7773 0.3271 333.8515 -178.6791)" gradientUnits="userSpaceOnUse">
			<stop  offset="0" style="stop-color:#FFFFFF"/>
			<stop  offset="1" style="stop-color:#030500"/>
		</radialGradient>
		<path fill="url(#SVGID_74_)" d="M277.579,220.473c-0.462-1.242,1.723-6.078,2.142-6.975c0.831-1.779,2.063-4.052,3.5-5.496
			c1.012-1.016,2.969-2.158,4.552-1.397c4.435,2.13-0.875,8.26-2.718,9.954C284.133,217.406,278.54,223.058,277.579,220.473z"/>
		
			<radialGradient id="SVGID_75_" cx="484.9586" cy="122.8691" r="7.7725" gradientTransform="matrix(-0.3013 0.7161 0.7773 0.3271 333.8515 -178.6791)" gradientUnits="userSpaceOnUse">
			<stop  offset="0" style="stop-color:#FFFFFF"/>
			<stop  offset="1" style="stop-color:#030500"/>
		</radialGradient>
		<path fill="url(#SVGID_75_)" d="M278.944,217.456c0.829-2.686,2.787-8.612,5.736-10.013c1.762-0.838,4.175-0.441,4.608,1.726
			c0.018,0.09-0.116,0.17-0.194,0.097c-0.706-0.67-1.768-1.049-2.747-0.904c-1.113,0.165-1.833,1.089-2.434,1.884
			c-1.201,1.589-2.222,3.342-3.25,5.04C280.65,215.307,278.936,217.485,278.944,217.456z"/>
	</g>
	<g>
		
			<radialGradient id="SVGID_76_" cx="641.6364" cy="-120.3625" r="11.3619" gradientTransform="matrix(0.4851 0.6069 -0.6588 0.5265 -179.4943 -107.206)" gradientUnits="userSpaceOnUse">
			<stop  offset="0" style="stop-color:#FFFFFF"/>
			<stop  offset="1" style="stop-color:#030500"/>
		</radialGradient>
		<path fill="url(#SVGID_76_)" d="M215.471,227.352c0.085-1.07-2.684-4.357-3.209-4.963c-1.041-1.204-2.503-2.703-3.941-3.511
			c-1.012-0.569-2.79-1.028-3.856-0.085c-2.986,2.64,2.505,6.246,4.316,7.159C209.686,226.408,215.294,229.579,215.471,227.352z"/>
		
			<radialGradient id="SVGID_77_" cx="640.2316" cy="-117.4836" r="6.2958" gradientTransform="matrix(0.4851 0.6069 -0.6588 0.5265 -179.4943 -107.206)" gradientUnits="userSpaceOnUse">
			<stop  offset="0" style="stop-color:#FFFFFF"/>
			<stop  offset="1" style="stop-color:#030500"/>
		</radialGradient>
		<path fill="url(#SVGID_77_)" d="M213.741,225.302c-1.237-1.91-4.073-6.097-6.68-6.54c-1.559-0.264-3.352,0.579-3.212,2.363
			c0.006,0.074,0.128,0.107,0.172,0.033c0.403-0.678,1.148-1.208,1.943-1.311c0.903-0.116,1.669,0.445,2.312,0.931
			c1.287,0.973,2.471,2.115,3.647,3.211C211.937,224.004,213.755,225.322,213.741,225.302z"/>
	</g>
	<g>
		
			<radialGradient id="SVGID_78_" cx="476.7646" cy="20.463" r="10.0873" gradientTransform="matrix(0.01 0.9273 0.8433 -0.0091 221.8827 -244.8619)" gradientUnits="userSpaceOnUse">
			<stop  offset="0" style="stop-color:#FFFFFF"/>
			<stop  offset="1" style="stop-color:#030500"/>
		</radialGradient>
		<path fill="url(#SVGID_78_)" d="M245.677,207.009c-0.662-0.823-0.613-5.375-0.594-6.226c0.037-1.685,0.195-3.895,0.727-5.521
			c0.375-1.146,1.336-2.709,2.6-2.649c3.536,0.171,1.798,6.808,1.07,8.77C249.116,202.363,247.052,208.72,245.677,207.009z"/>
		
			<radialGradient id="SVGID_79_" cx="475.5172" cy="23.0189" r="5.5896" gradientTransform="matrix(0.01 0.9273 0.8433 -0.0091 221.8827 -244.8619)" gradientUnits="userSpaceOnUse">
			<stop  offset="0" style="stop-color:#FFFFFF"/>
			<stop  offset="1" style="stop-color:#030500"/>
		</radialGradient>
		<path fill="url(#SVGID_79_)" d="M245.709,204.167c-0.226-2.399-0.638-7.735,0.902-9.843c0.921-1.26,2.626-1.767,3.535-0.206
			c0.038,0.064-0.028,0.172-0.1,0.142c-0.659-0.288-1.468-0.226-2.071,0.222c-0.686,0.509-0.895,1.483-1.063,2.313
			c-0.335,1.661-0.503,3.391-0.695,5.078C246.215,201.893,245.712,204.192,245.709,204.167z"/>
	</g>
	<g>
		<defs>
			<filter id="Adobe_OpacityMaskFilter_20_" filterUnits="userSpaceOnUse" x="281.98" y="226.996" width="18.156" height="5.482">
				<feFlood  style="flood-color:white;flood-opacity:1" result="back"/>
				<feBlend  in="SourceGraphic" in2="back" mode="normal"/>
			</filter>
		</defs>
		<mask maskUnits="userSpaceOnUse" x="281.98" y="226.996" width="18.156" height="5.482" id="SVGID_80_">
			<g filter="url(#Adobe_OpacityMaskFilter_20_)">
				<defs>
					<filter id="Adobe_OpacityMaskFilter_21_" filterUnits="userSpaceOnUse" x="281.98" y="226.996" width="18.156" height="5.482">
						<feFlood  style="flood-color:white;flood-opacity:1" result="back"/>
						<feBlend  in="SourceGraphic" in2="back" mode="normal"/>
					</filter>
				</defs>
				<mask maskUnits="userSpaceOnUse" x="281.98" y="226.996" width="18.156" height="5.482" id="SVGID_80_">
					<g filter="url(#Adobe_OpacityMaskFilter_21_)">
					</g>
				</mask>
				
					<linearGradient id="SVGID_81_" gradientUnits="userSpaceOnUse" x1="515.1929" y1="247.8757" x2="516.2823" y2="256.7264" gradientTransform="matrix(-0.9574 0.2706 0.2294 0.8115 727.0799 -113.718)">
					<stop  offset="0" style="stop-color:#000000"/>
					<stop  offset="0.5196" style="stop-color:#FFFFFF"/>
					<stop  offset="1" style="stop-color:#FFFFFF"/>
				</linearGradient>
				<path mask="url(#SVGID_80_)" fill="url(#SVGID_81_)" d="M282.436,229.619c0.093-0.063,0.203-0.127,0.328-0.192
					c1.2-0.622,2.61-0.672,3.919-0.832c1.93-0.234,3.846-0.525,5.751-0.94c1.81-0.395,3.716-0.87,5.522-0.557
					c2.036,0.352,3.043,1.997,1.245,3.497c-1.581,1.319-3.945,1.717-5.957,1.837c-2.76,0.163-5.479-0.107-8.095-0.657
					C284.186,231.571,280.755,230.759,282.436,229.619z"/>
			</g>
		</mask>
		
			<linearGradient id="SVGID_82_" gradientUnits="userSpaceOnUse" x1="515.1929" y1="247.8757" x2="516.2823" y2="256.7264" gradientTransform="matrix(-0.9574 0.2706 0.2294 0.8115 727.0799 -113.718)">
			<stop  offset="0" style="stop-color:#C5F588"/>
			<stop  offset="0.5196" style="stop-color:#95EC23"/>
			<stop  offset="1" style="stop-color:#A4EF42"/>
		</linearGradient>
		<path fill="url(#SVGID_82_)" d="M282.436,229.619c0.093-0.063,0.203-0.127,0.328-0.192c1.2-0.622,2.61-0.672,3.919-0.832
			c1.93-0.234,3.846-0.525,5.751-0.94c1.81-0.395,3.716-0.87,5.522-0.557c2.036,0.352,3.043,1.997,1.245,3.497
			c-1.581,1.319-3.945,1.717-5.957,1.837c-2.76,0.163-5.479-0.107-8.095-0.657C284.186,231.571,280.755,230.759,282.436,229.619z"/>
		
			<radialGradient id="SVGID_83_" cx="510.9423" cy="246.5306" r="10.1534" gradientTransform="matrix(-0.9574 0.2706 0.2294 0.8115 727.0799 -113.718)" gradientUnits="userSpaceOnUse">
			<stop  offset="0" style="stop-color:#FFFFFF"/>
			<stop  offset="1" style="stop-color:#030500"/>
		</radialGradient>
		<path fill="url(#SVGID_83_)" d="M284.551,229.142c0.683-0.876,5.441-2.118,6.331-2.34c1.767-0.441,4.111-0.914,5.946-0.857
			c1.29,0.04,3.175,0.53,3.443,1.775c0.75,3.484-6.622,3.675-8.858,3.524C290.295,231.167,283.128,230.963,284.551,229.142z"/>
		
			<radialGradient id="SVGID_84_" cx="509.6865" cy="249.1031" r="5.6264" gradientTransform="matrix(-0.9574 0.2706 0.2294 0.8115 727.0799 -113.718)" gradientUnits="userSpaceOnUse">
			<stop  offset="0" style="stop-color:#FFFFFF"/>
			<stop  offset="1" style="stop-color:#030500"/>
		</radialGradient>
		<path fill="url(#SVGID_84_)" d="M287.521,228.368c2.44-0.899,7.893-2.811,10.494-1.911c1.555,0.539,2.531,2.051,1.143,3.376
			c-0.057,0.056-0.188,0.023-0.174-0.056c0.126-0.721-0.151-1.49-0.776-1.95c-0.71-0.523-1.78-0.45-2.689-0.378
			c-1.818,0.145-3.665,0.471-5.474,0.764C290.024,228.216,287.494,228.378,287.521,228.368z"/>
	</g>
	<g>
		<defs>
			<filter id="Adobe_OpacityMaskFilter_22_" filterUnits="userSpaceOnUse" x="203.575" y="258.786" width="16.708" height="14.452">
				<feFlood  style="flood-color:white;flood-opacity:1" result="back"/>
				<feBlend  in="SourceGraphic" in2="back" mode="normal"/>
			</filter>
		</defs>
		<mask maskUnits="userSpaceOnUse" x="203.575" y="258.786" width="16.708" height="14.452" id="SVGID_85_">
			<g filter="url(#Adobe_OpacityMaskFilter_22_)">
				<defs>
					
						<filter id="Adobe_OpacityMaskFilter_23_" filterUnits="userSpaceOnUse" x="203.575" y="258.786" width="16.708" height="14.452">
						<feFlood  style="flood-color:white;flood-opacity:1" result="back"/>
						<feBlend  in="SourceGraphic" in2="back" mode="normal"/>
					</filter>
				</defs>
				<mask maskUnits="userSpaceOnUse" x="203.575" y="258.786" width="16.708" height="14.452" id="SVGID_85_">
					<g filter="url(#Adobe_OpacityMaskFilter_23_)">
					</g>
				</mask>
				
					<linearGradient id="SVGID_86_" gradientUnits="userSpaceOnUse" x1="795.7386" y1="288.5122" x2="797.0016" y2="298.7735" gradientTransform="matrix(0.8736 -0.476 0.4035 0.7405 -601.4261 428.3462)">
					<stop  offset="0" style="stop-color:#000000"/>
					<stop  offset="0.5196" style="stop-color:#FFFFFF"/>
					<stop  offset="1" style="stop-color:#FFFFFF"/>
				</linearGradient>
				<path mask="url(#SVGID_85_)" fill="url(#SVGID_86_)" d="M219.242,258.821c-0.129,0.023-0.271,0.059-0.427,0.106
					c-1.498,0.455-2.708,1.558-3.921,2.487c-1.789,1.37-3.612,2.682-5.531,3.884c-1.818,1.139-3.784,2.29-5.028,4.015
					c-1.401,1.942-0.902,4.122,1.804,3.91c2.379-0.191,4.662-1.779,6.427-3.311c2.42-2.102,4.454-4.53,6.176-7.108
					C219.375,261.857,221.559,258.402,219.242,258.821z"/>
			</g>
		</mask>
		
			<linearGradient id="SVGID_87_" gradientUnits="userSpaceOnUse" x1="795.7386" y1="288.5122" x2="797.0016" y2="298.7735" gradientTransform="matrix(0.8736 -0.476 0.4035 0.7405 -601.4261 428.3462)">
			<stop  offset="0" style="stop-color:#C5F588"/>
			<stop  offset="0.5196" style="stop-color:#95EC23"/>
			<stop  offset="1" style="stop-color:#A4EF42"/>
		</linearGradient>
		<path fill="url(#SVGID_87_)" d="M219.242,258.821c-0.129,0.023-0.271,0.059-0.427,0.106c-1.498,0.455-2.708,1.558-3.921,2.487
			c-1.789,1.37-3.612,2.682-5.531,3.884c-1.818,1.139-3.784,2.29-5.028,4.015c-1.401,1.942-0.902,4.122,1.804,3.91
			c2.379-0.191,4.662-1.779,6.427-3.311c2.42-2.102,4.454-4.53,6.176-7.108C219.375,261.857,221.559,258.402,219.242,258.821z"/>
		
			<radialGradient id="SVGID_88_" cx="790.8108" cy="286.9542" r="11.7716" gradientTransform="matrix(0.8736 -0.476 0.4035 0.7405 -601.4261 428.3462)" gradientUnits="userSpaceOnUse">
			<stop  offset="0" style="stop-color:#FFFFFF"/>
			<stop  offset="1" style="stop-color:#030500"/>
		</radialGradient>
		<path fill="url(#SVGID_88_)" d="M217.103,260.14c-1.276-0.172-6.226,2.657-7.144,3.193c-1.822,1.065-4.148,2.575-5.623,4.108
			c-1.038,1.081-2.201,3.016-1.414,4.263c2.204,3.497,8.469-2.322,10.198-4.262C213.985,266.475,219.759,260.496,217.103,260.14z"/>
		
			<radialGradient id="SVGID_89_" cx="789.3551" cy="289.9355" r="6.5235" gradientTransform="matrix(0.8736 -0.476 0.4035 0.7405 -601.4261 428.3462)" gradientUnits="userSpaceOnUse">
			<stop  offset="0" style="stop-color:#FFFFFF"/>
			<stop  offset="1" style="stop-color:#030500"/>
		</radialGradient>
		<path fill="url(#SVGID_89_)" d="M214.014,261.905c-2.751,1.233-8.821,4.069-10.246,6.925c-0.853,1.707-0.436,3.752,1.79,3.724
			c0.092,0,0.173-0.132,0.098-0.189c-0.69-0.494-1.082-1.355-0.937-2.242c0.164-1.01,1.109-1.819,1.921-2.492
			c1.626-1.356,3.419-2.583,5.156-3.806C211.817,263.81,214.044,261.892,214.014,261.905z"/>
	</g>
	<g>
		<defs>
			<filter id="Adobe_OpacityMaskFilter_24_" filterUnits="userSpaceOnUse" x="291.713" y="258.244" width="15.377" height="5.612">
				<feFlood  style="flood-color:white;flood-opacity:1" result="back"/>
				<feBlend  in="SourceGraphic" in2="back" mode="normal"/>
			</filter>
		</defs>
		<mask maskUnits="userSpaceOnUse" x="291.713" y="258.244" width="15.377" height="5.612" id="SVGID_90_">
			<g filter="url(#Adobe_OpacityMaskFilter_24_)">
				<defs>
					
						<filter id="Adobe_OpacityMaskFilter_25_" filterUnits="userSpaceOnUse" x="291.713" y="258.244" width="15.377" height="5.612">
						<feFlood  style="flood-color:white;flood-opacity:1" result="back"/>
						<feBlend  in="SourceGraphic" in2="back" mode="normal"/>
					</filter>
				</defs>
				<mask maskUnits="userSpaceOnUse" x="291.713" y="258.244" width="15.377" height="5.612" id="SVGID_90_">
					<g filter="url(#Adobe_OpacityMaskFilter_25_)">
					</g>
				</mask>
				
					<linearGradient id="SVGID_91_" gradientUnits="userSpaceOnUse" x1="1086.9387" y1="401.3885" x2="1087.8794" y2="409.0314" gradientTransform="matrix(-0.9947 -0.0215 -0.0183 0.8431 1388.308 -56.8552)">
					<stop  offset="0" style="stop-color:#000000"/>
					<stop  offset="0.5196" style="stop-color:#FFFFFF"/>
					<stop  offset="1" style="stop-color:#FFFFFF"/>
				</linearGradient>
				<path mask="url(#SVGID_90_)" fill="url(#SVGID_91_)" d="M292.262,258.39c0.092-0.028,0.199-0.053,0.319-0.076
					c1.147-0.211,2.325,0.104,3.445,0.306c1.652,0.294,3.308,0.538,4.988,0.677c1.592,0.133,3.288,0.221,4.701,0.935
					c1.591,0.807,2.007,2.419,0.143,3.203c-1.639,0.69-3.692,0.419-5.384,0.01c-2.32-0.562-4.497-1.474-6.517-2.59
					C293.213,260.444,290.586,258.906,292.262,258.39z"/>
			</g>
		</mask>
		
			<linearGradient id="SVGID_92_" gradientUnits="userSpaceOnUse" x1="1086.9387" y1="401.3885" x2="1087.8794" y2="409.0314" gradientTransform="matrix(-0.9947 -0.0215 -0.0183 0.8431 1388.308 -56.8552)">
			<stop  offset="0" style="stop-color:#C5F588"/>
			<stop  offset="0.5196" style="stop-color:#95EC23"/>
			<stop  offset="1" style="stop-color:#A4EF42"/>
		</linearGradient>
		<path fill="url(#SVGID_92_)" d="M292.262,258.39c0.092-0.028,0.199-0.053,0.319-0.076c1.147-0.211,2.325,0.104,3.445,0.306
			c1.652,0.294,3.308,0.538,4.988,0.677c1.592,0.133,3.288,0.221,4.701,0.935c1.591,0.807,2.007,2.419,0.143,3.203
			c-1.639,0.69-3.692,0.419-5.384,0.01c-2.32-0.562-4.497-1.474-6.517-2.59C293.213,260.444,290.586,258.906,292.262,258.39z"/>
		
			<radialGradient id="SVGID_93_" cx="1083.2682" cy="400.2281" r="8.7676" gradientTransform="matrix(-0.9947 -0.0215 -0.0183 0.8431 1388.308 -56.8552)" gradientUnits="userSpaceOnUse">
			<stop  offset="0" style="stop-color:#FFFFFF"/>
			<stop  offset="1" style="stop-color:#030500"/>
		</radialGradient>
		<path fill="url(#SVGID_93_)" d="M294.128,258.529c0.785-0.55,5.028-0.372,5.819-0.33c1.57,0.082,3.625,0.284,5.126,0.795
			c1.056,0.358,2.488,1.24,2.395,2.333c-0.262,3.068-6.398,1.363-8.207,0.673C298.359,261.655,292.494,259.675,294.128,258.529z"/>
		
			<radialGradient id="SVGID_94_" cx="1082.1846" cy="402.45" r="4.8587" gradientTransform="matrix(-0.9947 -0.0215 -0.0183 0.8431 1388.308 -56.8552)" gradientUnits="userSpaceOnUse">
			<stop  offset="0" style="stop-color:#FFFFFF"/>
			<stop  offset="1" style="stop-color:#030500"/>
		</radialGradient>
		<path fill="url(#SVGID_94_)" d="M296.776,258.643c2.241-0.125,7.229-0.326,9.148,1.075c1.148,0.837,1.571,2.333,0.092,3.076
			c-0.063,0.031-0.162-0.029-0.13-0.092c0.287-0.563,0.251-1.269-0.147-1.806c-0.456-0.611-1.357-0.82-2.126-0.989
			c-1.538-0.341-3.146-0.538-4.713-0.755C298.881,259.15,296.751,258.644,296.776,258.643z"/>
	</g>
	<g>
		<defs>
			<filter id="Adobe_OpacityMaskFilter_26_" filterUnits="userSpaceOnUse" x="269.685" y="274.021" width="10.474" height="14.568">
				<feFlood  style="flood-color:white;flood-opacity:1" result="back"/>
				<feBlend  in="SourceGraphic" in2="back" mode="normal"/>
			</filter>
		</defs>
		<mask maskUnits="userSpaceOnUse" x="269.685" y="274.021" width="10.474" height="14.568" id="SVGID_95_">
			<g filter="url(#Adobe_OpacityMaskFilter_26_)">
				<defs>
					
						<filter id="Adobe_OpacityMaskFilter_27_" filterUnits="userSpaceOnUse" x="269.685" y="274.021" width="10.474" height="14.568">
						<feFlood  style="flood-color:white;flood-opacity:1" result="back"/>
						<feBlend  in="SourceGraphic" in2="back" mode="normal"/>
					</filter>
				</defs>
				<mask maskUnits="userSpaceOnUse" x="269.685" y="274.021" width="10.474" height="14.568" id="SVGID_95_">
					<g filter="url(#Adobe_OpacityMaskFilter_27_)">
					</g>
				</mask>
				
					<linearGradient id="SVGID_96_" gradientUnits="userSpaceOnUse" x1="1149.7351" y1="499.4428" x2="1150.6758" y2="507.0853" gradientTransform="matrix(-0.7841 -0.6131 -0.8888 1.0838 1622.7941 441.8082)">
					<stop  offset="0" style="stop-color:#000000"/>
					<stop  offset="0.5196" style="stop-color:#FFFFFF"/>
					<stop  offset="1" style="stop-color:#FFFFFF"/>
				</linearGradient>
				<path mask="url(#SVGID_95_)" fill="url(#SVGID_96_)" d="M271.072,274.041c0.105,0.018,0.218,0.046,0.338,0.087
					c1.148,0.403,1.776,1.504,2.478,2.426c1.033,1.353,2.124,2.643,3.341,3.813c1.154,1.106,2.436,2.219,2.84,3.979
					c0.455,1.982-0.878,4.318-3.204,4.241c-2.042-0.069-3.427-1.628-4.375-3.155c-1.297-2.094-2.118-4.556-2.599-7.195
					C269.714,277.266,269.178,273.725,271.072,274.041z"/>
			</g>
		</mask>
		
			<linearGradient id="SVGID_97_" gradientUnits="userSpaceOnUse" x1="1149.7351" y1="499.4428" x2="1150.6758" y2="507.0853" gradientTransform="matrix(-0.7841 -0.6131 -0.8888 1.0838 1622.7941 441.8082)">
			<stop  offset="0" style="stop-color:#C5F588"/>
			<stop  offset="0.5196" style="stop-color:#95EC23"/>
			<stop  offset="1" style="stop-color:#A4EF42"/>
		</linearGradient>
		<path fill="url(#SVGID_97_)" d="M271.072,274.041c0.105,0.018,0.218,0.046,0.338,0.087c1.148,0.403,1.776,1.504,2.478,2.426
			c1.033,1.353,2.124,2.643,3.341,3.813c1.154,1.106,2.436,2.219,2.84,3.979c0.455,1.982-0.878,4.318-3.204,4.241
			c-2.042-0.069-3.427-1.628-4.375-3.155c-1.297-2.094-2.118-4.556-2.599-7.195C269.714,277.266,269.178,273.725,271.072,274.041z"
			/>
		
			<radialGradient id="SVGID_98_" cx="1146.0642" cy="498.2824" r="8.768" gradientTransform="matrix(-0.7841 -0.6131 -0.8888 1.0838 1622.7941 441.8082)" gradientUnits="userSpaceOnUse">
			<stop  offset="0" style="stop-color:#FFFFFF"/>
			<stop  offset="1" style="stop-color:#030500"/>
		</radialGradient>
		<path fill="url(#SVGID_98_)" d="M272.44,275.32c1.207-0.252,4.463,2.475,5.061,2.994c1.189,1.027,2.645,2.501,3.332,4.045
			c0.484,1.089,0.732,3.076-0.479,4.443c-3.392,3.827-6.598-1.998-7.347-3.957C272.631,281.866,269.927,275.846,272.44,275.32z"/>
		
			<radialGradient id="SVGID_99_" cx="1144.9808" cy="500.5031" r="4.8586" gradientTransform="matrix(-0.7841 -0.6131 -0.8888 1.0838 1622.7941 441.8082)" gradientUnits="userSpaceOnUse">
			<stop  offset="0" style="stop-color:#FFFFFF"/>
			<stop  offset="1" style="stop-color:#030500"/>
		</radialGradient>
		<path fill="url(#SVGID_99_)" d="M274.471,277.023c1.948,1.155,6.197,3.83,6.302,6.777c0.063,1.761-1.145,3.954-3.116,4.047
			c-0.082,0.005-0.101-0.131-0.01-0.194c0.817-0.561,1.519-1.498,1.753-2.431c0.264-1.062-0.249-1.863-0.695-2.535
			c-0.893-1.348-1.993-2.552-3.039-3.751C275.651,278.922,274.449,277.012,274.471,277.023z"/>
	</g>
	<g>
		<defs>
			<filter id="Adobe_OpacityMaskFilter_28_" filterUnits="userSpaceOnUse" x="241.756" y="273.685" width="7.632" height="16.149">
				<feFlood  style="flood-color:white;flood-opacity:1" result="back"/>
				<feBlend  in="SourceGraphic" in2="back" mode="normal"/>
			</filter>
		</defs>
		<mask maskUnits="userSpaceOnUse" x="241.756" y="273.685" width="7.632" height="16.149" id="SVGID_100_">
			<g filter="url(#Adobe_OpacityMaskFilter_28_)">
				<defs>
					
						<filter id="Adobe_OpacityMaskFilter_29_" filterUnits="userSpaceOnUse" x="241.756" y="273.685" width="7.632" height="16.149">
						<feFlood  style="flood-color:white;flood-opacity:1" result="back"/>
						<feBlend  in="SourceGraphic" in2="back" mode="normal"/>
					</filter>
				</defs>
				<mask maskUnits="userSpaceOnUse" x="241.756" y="273.685" width="7.632" height="16.149" id="SVGID_100_">
					<g filter="url(#Adobe_OpacityMaskFilter_29_)">
					</g>
				</mask>
				
					<linearGradient id="SVGID_101_" gradientUnits="userSpaceOnUse" x1="1209.7014" y1="543.1594" x2="1210.6421" y2="550.8028" gradientTransform="matrix(0.4743 -0.875 1.2474 0.6391 -1009.4466 991.5677)">
					<stop  offset="0" style="stop-color:#000000"/>
					<stop  offset="0.5196" style="stop-color:#FFFFFF"/>
					<stop  offset="1" style="stop-color:#FFFFFF"/>
				</linearGradient>
				<path mask="url(#SVGID_100_)" fill="url(#SVGID_101_)" d="M245.977,273.879c-0.09,0.059-0.182,0.129-0.275,0.216
					c-0.892,0.827-1.028,2.086-1.305,3.21c-0.407,1.654-0.892,3.273-1.541,4.831c-0.617,1.476-1.348,3.007-1.017,4.782
					c0.373,1.998,2.529,3.609,4.631,2.611c1.845-0.878,2.494-2.859,2.752-4.64c0.353-2.439,0.124-5.023-0.487-7.634
					C248.509,276.294,247.588,272.835,245.977,273.879z"/>
			</g>
		</mask>
		
			<linearGradient id="SVGID_102_" gradientUnits="userSpaceOnUse" x1="1209.7014" y1="543.1594" x2="1210.6421" y2="550.8028" gradientTransform="matrix(0.4743 -0.875 1.2474 0.6391 -1009.4466 991.5677)">
			<stop  offset="0" style="stop-color:#C5F588"/>
			<stop  offset="0.5196" style="stop-color:#95EC23"/>
			<stop  offset="1" style="stop-color:#A4EF42"/>
		</linearGradient>
		<path fill="url(#SVGID_102_)" d="M245.977,273.879c-0.09,0.059-0.182,0.129-0.275,0.216c-0.892,0.827-1.028,2.086-1.305,3.21
			c-0.407,1.654-0.892,3.273-1.541,4.831c-0.617,1.476-1.348,3.007-1.017,4.782c0.373,1.998,2.529,3.609,4.631,2.611
			c1.845-0.878,2.494-2.859,2.752-4.64c0.353-2.439,0.124-5.023-0.487-7.634C248.509,276.294,247.588,272.835,245.977,273.879z"/>
		
			<radialGradient id="SVGID_103_" cx="1206.0305" cy="541.9988" r="8.7684" gradientTransform="matrix(0.4743 -0.875 1.2474 0.6391 -1009.4466 991.5677)" gradientUnits="userSpaceOnUse">
			<stop  offset="0" style="stop-color:#FFFFFF"/>
			<stop  offset="1" style="stop-color:#030500"/>
		</radialGradient>
		<path fill="url(#SVGID_103_)" d="M245.232,275.598c-1.207,0.252-3.104,4.051-3.446,4.765c-0.679,1.418-1.425,3.351-1.44,5.041
			c-0.009,1.19,0.557,3.111,2.213,3.881c4.637,2.156,5.252-4.464,5.158-6.561C247.67,281.676,247.746,275.077,245.232,275.598z"/>
		
			<radialGradient id="SVGID_104_" cx="1204.9471" cy="544.22" r="4.8584" gradientTransform="matrix(0.4743 -0.875 1.2474 0.6391 -1009.4466 991.5677)" gradientUnits="userSpaceOnUse">
			<stop  offset="0" style="stop-color:#FFFFFF"/>
			<stop  offset="1" style="stop-color:#030500"/>
		</radialGradient>
		<path fill="url(#SVGID_104_)" d="M244.051,277.971c-1.325,1.838-4.155,5.983-3.075,8.729c0.647,1.64,2.628,3.167,4.472,2.466
			c0.078-0.028,0.04-0.159-0.068-0.182c-0.972-0.19-1.99-0.768-2.577-1.529c-0.666-0.867-0.516-1.809-0.375-2.603
			c0.282-1.593,0.81-3.133,1.29-4.652C243.726,280.182,244.066,277.95,244.051,277.971z"/>
	</g>
	<g>
		<defs>
			<filter id="Adobe_OpacityMaskFilter_30_" filterUnits="userSpaceOnUse" x="212.699" y="291.064" width="10.566" height="18.962">
				<feFlood  style="flood-color:white;flood-opacity:1" result="back"/>
				<feBlend  in="SourceGraphic" in2="back" mode="normal"/>
			</filter>
		</defs>
		<mask maskUnits="userSpaceOnUse" x="212.699" y="291.064" width="10.566" height="18.962" id="SVGID_105_">
			<g filter="url(#Adobe_OpacityMaskFilter_30_)">
				<defs>
					
						<filter id="Adobe_OpacityMaskFilter_31_" filterUnits="userSpaceOnUse" x="212.699" y="291.064" width="10.566" height="18.962">
						<feFlood  style="flood-color:white;flood-opacity:1" result="back"/>
						<feBlend  in="SourceGraphic" in2="back" mode="normal"/>
					</filter>
				</defs>
				<mask maskUnits="userSpaceOnUse" x="212.699" y="291.064" width="10.566" height="18.962" id="SVGID_105_">
					<g filter="url(#Adobe_OpacityMaskFilter_31_)">
					</g>
				</mask>
				
					<linearGradient id="SVGID_106_" gradientUnits="userSpaceOnUse" x1="1180.8247" y1="510.6673" x2="1181.9669" y2="519.9479" gradientTransform="matrix(0.6398 -0.7624 1.0943 0.8758 -1099.9694 750.7242)">
					<stop  offset="0" style="stop-color:#000000"/>
					<stop  offset="0.5196" style="stop-color:#FFFFFF"/>
					<stop  offset="1" style="stop-color:#FFFFFF"/>
				</linearGradient>
				<path mask="url(#SVGID_105_)" fill="url(#SVGID_106_)" d="M220.792,291.174c-0.12,0.046-0.247,0.11-0.379,0.189
					c-1.263,0.769-1.73,2.234-2.333,3.505c-0.887,1.868-1.856,3.676-3.008,5.371c-1.093,1.607-2.335,3.251-2.372,5.441
					c-0.042,2.469,2.131,4.908,4.874,4.232c2.41-0.598,3.662-2.795,4.402-4.85c1.013-2.815,1.369-5.946,1.275-9.201
					C223.217,294.663,222.962,290.322,220.792,291.174z"/>
			</g>
		</mask>
		
			<linearGradient id="SVGID_107_" gradientUnits="userSpaceOnUse" x1="1180.8247" y1="510.6673" x2="1181.9669" y2="519.9479" gradientTransform="matrix(0.6398 -0.7624 1.0943 0.8758 -1099.9694 750.7242)">
			<stop  offset="0" style="stop-color:#C5F588"/>
			<stop  offset="0.5196" style="stop-color:#95EC23"/>
			<stop  offset="1" style="stop-color:#A4EF42"/>
		</linearGradient>
		<path fill="url(#SVGID_107_)" d="M220.792,291.174c-0.12,0.046-0.247,0.11-0.379,0.189c-1.263,0.769-1.73,2.234-2.333,3.505
			c-0.887,1.868-1.856,3.676-3.008,5.371c-1.093,1.607-2.335,3.251-2.372,5.441c-0.042,2.469,2.131,4.908,4.874,4.232
			c2.41-0.598,3.662-2.795,4.402-4.85c1.013-2.815,1.369-5.946,1.275-9.201C223.217,294.663,222.962,290.322,220.792,291.174z"/>
		
			<radialGradient id="SVGID_108_" cx="1176.3676" cy="509.2581" r="10.6469" gradientTransform="matrix(0.6398 -0.7624 1.0943 0.8758 -1099.9694 750.7242)" gradientUnits="userSpaceOnUse">
			<stop  offset="0" style="stop-color:#FFFFFF"/>
			<stop  offset="1" style="stop-color:#030500"/>
		</radialGradient>
		<path fill="url(#SVGID_108_)" d="M219.488,293.037c-1.497,0.006-4.677,4.066-5.257,4.832c-1.154,1.521-2.512,3.639-2.939,5.646
			c-0.301,1.415-0.094,3.836,1.689,5.154c4.994,3.694,7.333-4.033,7.731-6.552C220.911,300.861,222.606,293.029,219.488,293.037z"/>
		
			<radialGradient id="SVGID_109_" cx="1175.0509" cy="511.9549" r="5.8993" gradientTransform="matrix(0.6398 -0.7624 1.0943 0.8758 -1099.9694 750.7242)" gradientUnits="userSpaceOnUse">
			<stop  offset="0" style="stop-color:#FFFFFF"/>
			<stop  offset="1" style="stop-color:#030500"/>
		</radialGradient>
		<path fill="url(#SVGID_109_)" d="M217.506,295.574c-2.023,1.864-6.398,6.108-5.778,9.637c0.369,2.109,2.356,4.408,4.72,4.021
			c0.099-0.016,0.086-0.182-0.036-0.232c-1.112-0.461-2.182-1.397-2.694-2.447c-0.581-1.193-0.175-2.274,0.187-3.185
			c0.722-1.826,1.724-3.534,2.665-5.222C216.582,298.125,217.528,295.554,217.506,295.574z"/>
	</g>
</g>
</svg>
